<?xml version="1.0" encoding="UTF-8"?>
<svg version="1.1" xmlns="http://www.w3.org/2000/svg" width="565" height="441">
<path d="M0 0 C46.86 0 93.72 0 142 0 C142 2.31 142 4.62 142 7 C147.94 7 153.88 7 160 7 C160 8.65 160 10.3 160 12 C161.14339844 11.98839844 162.28679687 11.97679687 163.46484375 11.96484375 C164.95572754 11.95546712 166.44661309 11.94636679 167.9375 11.9375 C169.06961914 11.92493164 169.06961914 11.92493164 170.22460938 11.91210938 C172.14994313 11.90347559 174.07535581 11.94775667 176 12 C177 13 177 13 177.0625 16.5625 C177.041875 17.696875 177.02125 18.83125 177 20 C180.63 20 184.26 20 188 20 C188.33 20.99 188.66 21.98 189 23 C190.65 23 192.3 23 194 23 C194 24.98 194 26.96 194 29 C196.31 29 198.62 29 201 29 C201 30.98 201 32.96 201 35 C202.98 35 204.96 35 207 35 C207 36.32 207 37.64 207 39 C208.299375 38.979375 209.59875 38.95875 210.9375 38.9375 C212.29165633 38.91600546 213.64756083 38.92851801 215 39 C216 40 216 40 216.0625 43.5625 C216.041875 44.696875 216.02125 45.83125 216 47 C218.31 47 220.62 47 223 47 C223 49.31 223 51.62 223 54 C224.98 54 226.96 54 229 54 C230.42944945 56.35438733 231.08661261 57.48032433 230.625 60.25 C230.315625 61.11625 230.315625 61.11625 230 62 C232.31 62 234.62 62 237 62 C237 64.31 237 66.62 237 69 C237.969375 68.979375 238.93875 68.95875 239.9375 68.9375 C243 69 243 69 244 70 C244.07226502 71.85287502 244.0838122 73.70833878 244.0625 75.5625 C244.05347656 76.57441406 244.04445313 77.58632812 244.03515625 78.62890625 C244.01775391 79.80259766 244.01775391 79.80259766 244 81 C246.31 81 248.62 81 251 81 C251 85.29 251 89.58 251 94 C252.98 94 254.96 94 257 94 C258 95 258 95 258.09765625 97.72265625 C258.08025391 99.37587891 258.08025391 99.37587891 258.0625 101.0625 C258.05347656 102.16722656 258.04445313 103.27195312 258.03515625 104.41015625 C258.01775391 105.69212891 258.01775391 105.69212891 258 107 C259.65 107 261.3 107 263 107 C263 111.29 263 115.58 263 120 C264.65 120.33 266.3 120.66 268 121 C268 127.27 268 133.54 268 140 C270.14822266 139.98259766 270.14822266 139.98259766 272.33984375 139.96484375 C274.20572787 139.95546745 276.07161339 139.94636708 277.9375 139.9375 C278.88302734 139.92912109 279.82855469 139.92074219 280.80273438 139.91210938 C281.70185547 139.90888672 282.60097656 139.90566406 283.52734375 139.90234375 C284.35999756 139.89710693 285.19265137 139.89187012 286.05053711 139.88647461 C288 140 288 140 289 141 C289.04092937 143.33297433 289.04241723 145.66705225 289 148 C291.31 148 293.62 148 296 148 C296.33 149.32 296.66 150.64 297 152 C298.32 152.33 299.64 152.66 301 153 C301 154.65 301 156.3 301 158 C302.2065625 157.9690625 302.2065625 157.9690625 303.4375 157.9375 C306 158 306 158 307 159 C307.04080783 160.99958364 307.04254356 163.00045254 307 165 C307.639375 164.814375 308.27875 164.62875 308.9375 164.4375 C309.618125 164.293125 310.29875 164.14875 311 164 C312 165 312 165 312.0625 168.5625 C312.041875 169.696875 312.02125 170.83125 312 172 C314.31 172 316.62 172 319 172 C319 176.29 319 180.58 319 185 C321.97 185.33 324.94 185.66 328 186 C328.0231241 196.02227763 328.04091543 206.04454897 328.05181217 216.0668478 C328.05704085 220.72011186 328.06413823 225.37335774 328.07543945 230.02661133 C328.08626886 234.51344546 328.09227695 239.00026204 328.09487724 243.48710823 C328.0967314 245.20280293 328.10035182 246.91849662 328.10573006 248.63418388 C328.11294121 251.02884913 328.11399091 253.42344096 328.11352539 255.81811523 C328.11712067 256.53452682 328.12071594 257.25093842 328.12442017 257.98905945 C328.11405216 262.88594784 328.11405216 262.88594784 327 264 C324.32941149 264.14115161 321.67567762 264.04247107 319 264 C319.01740234 265.39025391 319.01740234 265.39025391 319.03515625 266.80859375 C319.04869141 268.60490234 319.04869141 268.60490234 319.0625 270.4375 C319.07410156 271.63246094 319.08570313 272.82742188 319.09765625 274.05859375 C319 277 319 277 318 278 C316.00041636 278.04080783 313.99954746 278.04254356 312 278 C312.0309375 279.2065625 312.0309375 279.2065625 312.0625 280.4375 C312 283 312 283 311 284 C309.33382885 284.04063832 307.66611905 284.042721 306 284 C306.0309375 285.7015625 306.0309375 285.7015625 306.0625 287.4375 C306 291 306 291 305 292 C302.66702567 292.04092937 300.33294775 292.04241723 298 292 C297.67 292.99 297.34 293.98 297 295 C295.68 295 294.36 295 293 295 C293.0309375 296.2065625 293.0309375 296.2065625 293.0625 297.4375 C293 300 293 300 292 301 C289.1883662 301.08861992 286.40141745 301.11522355 283.58984375 301.09765625 C282.74780899 301.0962413 281.90577423 301.09482635 281.03822327 301.09336853 C278.33794665 301.08775263 275.63775172 301.07519748 272.9375 301.0625 C271.11132932 301.05748705 269.28515734 301.05292379 267.45898438 301.04882812 C262.97262458 301.03777804 258.48632616 301.02050279 254 301 C254 304.63 254 308.26 254 312 C252.35 312.33 250.7 312.66 249 313 C248.34 315.31 247.68 317.62 247 320 C245.35 320 243.7 320 242 320 C242.01740234 320.95712891 242.01740234 320.95712891 242.03515625 321.93359375 C242.04869141 323.17302734 242.04869141 323.17302734 242.0625 324.4375 C242.07410156 325.26121094 242.08570313 326.08492188 242.09765625 326.93359375 C242 329 242 329 241 330 C239.33382885 330.04063832 237.66611905 330.042721 236 330 C236 331.65 236 333.3 236 335 C234.35 335.33 232.7 335.66 231 336 C231 337.65 231 339.3 231 341 C229.02 341 227.04 341 225 341 C225 342.32 225 343.64 225 345 C222.69 345.33 220.38 345.66 218 346 C218 347.65 218 349.3 218 351 C215.69 351 213.38 351 211 351 C211 352.98 211 354.96 211 357 C208.69 357 206.38 357 204 357 C204 358.65 204 360.3 204 362 C201.69 362 199.38 362 197 362 C197 363.65 197 365.3 197 367 C193.7 367 190.4 367 187 367 C187 368.98 187 370.96 187 373 C181.39 373 175.78 373 170 373 C170 374.65 170 376.3 170 378 C169 379 169 379 166.71484375 379.09765625 C165.34005859 379.08025391 165.34005859 379.08025391 163.9375 379.0625 C163.01839844 379.05347656 162.09929687 379.04445313 161.15234375 379.03515625 C160.44207031 379.02355469 159.73179687 379.01195312 159 379 C159 380.32 159 381.64 159 383 C100.59 383 42.18 383 -18 383 C-18 381.35 -18 379.7 -18 378 C-21.3 378 -24.6 378 -28 378 C-28.33 376.35 -28.66 374.7 -29 373 C-33.29 373 -37.58 373 -42 373 C-42 371.02 -42 369.04 -42 367 C-46.29 367 -50.58 367 -55 367 C-55.33 365.68 -55.66 364.36 -56 363 C-58.31 362.67 -60.62 362.34 -63 362 C-63 360.35 -63 358.7 -63 357 C-65.31 356.67 -67.62 356.34 -70 356 C-70 354.35 -70 352.7 -70 351 C-72.64 351 -75.28 351 -78 351 C-78 349.35 -78 347.7 -78 346 C-79.98 346 -81.96 346 -84 346 C-84 344.35 -84 342.7 -84 341 C-85.98 341 -87.96 341 -90 341 C-90.33 339.35 -90.66 337.7 -91 336 C-92.32 336 -93.64 336 -95 336 C-95 334.35 -95 332.7 -95 331 C-96.32 330.67 -97.64 330.34 -99 330 C-99.33 328.68 -99.66 327.36 -100 326 C-116.17 326 -132.34 326 -149 326 C-149.495 324.515 -149.495 324.515 -150 323 C-152.10584438 322.19436362 -152.10584438 322.19436362 -154.5625 321.8125 C-155.38878906 321.65394531 -156.21507812 321.49539063 -157.06640625 321.33203125 C-158.02353516 321.16767578 -158.02353516 321.16767578 -159 321 C-159 319.68 -159 318.36 -159 317 C-161.64 317 -164.28 317 -167 317 C-167.495 315.02 -167.495 315.02 -168 313 C-169.7015625 313.0309375 -169.7015625 313.0309375 -171.4375 313.0625 C-175 313 -175 313 -176 312 C-176.04092937 309.66702567 -176.04241723 307.33294775 -176 305 C-178.31 305 -180.62 305 -183 305 C-183 300.71 -183 296.42 -183 292 C-184.98 292 -186.96 292 -189 292 C-189 287.71 -189 283.42 -189 279 C-190.9490625 279.0309375 -190.9490625 279.0309375 -192.9375 279.0625 C-194.29165633 279.08399454 -195.64756083 279.07148199 -197 279 C-198.71723406 277.28276594 -198.12593494 275.09967833 -198.13552856 272.80978394 C-198.13350433 272.06689117 -198.1314801 271.32399841 -198.12939453 270.55859375 C-198.13202301 269.39035568 -198.13202301 269.39035568 -198.13470459 268.19851685 C-198.13912349 265.61148889 -198.13618499 263.02452871 -198.1328125 260.4375 C-198.13348553 258.64770494 -198.13445554 256.85790998 -198.13571167 255.06811523 C-198.13718869 251.31200289 -198.13503394 247.55591428 -198.13037109 243.79980469 C-198.1246738 238.97399507 -198.12795278 234.14824105 -198.13394356 229.32243347 C-198.13754905 225.62511777 -198.13641064 221.92781536 -198.13381577 218.23049927 C-198.13314646 216.45061232 -198.13397503 214.67072418 -198.13629532 212.89083862 C-198.13882165 210.40766178 -198.13498154 207.92457626 -198.12939453 205.44140625 C-198.13141876 204.69851349 -198.13344299 203.95562073 -198.13552856 203.19021606 C-198.11426262 198.11426262 -198.11426262 198.11426262 -197 197 C-194.32941149 196.85884839 -191.67567762 196.95752893 -189 197 C-189.01160156 196.14535156 -189.02320313 195.29070312 -189.03515625 194.41015625 C-189.04417969 193.30542969 -189.05320313 192.20070312 -189.0625 191.0625 C-189.07410156 189.96035156 -189.08570313 188.85820312 -189.09765625 187.72265625 C-189 185 -189 185 -188 184 C-186.33382885 183.95936168 -184.66611905 183.957279 -183 184 C-183.020625 183.030625 -183.04125 182.06125 -183.0625 181.0625 C-183 178 -183 178 -182 177 C-180.00041636 176.95919217 -177.99954746 176.95745644 -176 177 C-175.67 175.35 -175.34 173.7 -175 172 C-173.68 172 -172.36 172 -171 172 C-170.67 170.68 -170.34 169.36 -170 168 C-167.69 168 -165.38 168 -163 168 C-163.020625 167.030625 -163.04125 166.06125 -163.0625 165.0625 C-163 162 -163 162 -162 161 C-156.06 161 -150.12 161 -144 161 C-144 148.79 -144 136.58 -144 124 C-142.02 123.01 -142.02 123.01 -140 122 C-140 118.04 -140 114.08 -140 110 C-138.02 110 -136.04 110 -134 110 C-134 103.73 -134 97.46 -134 91 C-131.03 91 -128.06 91 -125 91 C-125.01160156 90.14535156 -125.02320312 89.29070312 -125.03515625 88.41015625 C-125.04417969 87.30542969 -125.05320312 86.20070313 -125.0625 85.0625 C-125.07410156 83.96035156 -125.08570312 82.85820313 -125.09765625 81.72265625 C-125 79 -125 79 -124 78 C-121.66702567 77.95907063 -119.33294775 77.95758277 -117 78 C-117 76.35 -117 74.7 -117 73 C-114.69 73 -112.38 73 -110 73 C-110 70.69 -110 68.38 -110 66 C-107.69 66 -105.38 66 -103 66 C-103.020625 64.700625 -103.04125 63.40125 -103.0625 62.0625 C-103.08399454 60.70834367 -103.07148199 59.35243917 -103 58 C-102 57 -102 57 -98.9375 56.9375 C-97.968125 56.958125 -96.99875 56.97875 -96 57 C-95.67 54.69 -95.34 52.38 -95 50 C-92.36 50 -89.72 50 -87 50 C-87.020625 48.865625 -87.04125 47.73125 -87.0625 46.5625 C-87 43 -87 43 -86 42 C-83.32941149 41.85884839 -80.67567762 41.95752893 -78 42 C-78 39.69 -78 37.38 -78 35 C-75.36 35 -72.72 35 -70 35 C-70.020625 34.195625 -70.04125 33.39125 -70.0625 32.5625 C-70 30 -70 30 -69 29 C-66.32941149 28.85884839 -63.67567762 28.95752893 -61 29 C-61.0309375 27.576875 -61.0309375 27.576875 -61.0625 26.125 C-61 23 -61 23 -60 21 C-56.37 21 -52.74 21 -49 21 C-49 19.35 -49 17.7 -49 16 C-48 15 -48 15 -44.40234375 14.90234375 C-42.91403133 14.9090178 -41.42573568 14.92097817 -39.9375 14.9375 C-38.79958008 14.94426758 -38.79958008 14.94426758 -37.63867188 14.95117188 C-35.75908129 14.9629932 -33.87953101 14.98092922 -32 15 C-32 13.35 -32 11.7 -32 10 C-26.06 10 -20.12 10 -14 10 C-14 8.35 -14 6.7 -14 5 C-9.38 5 -4.76 5 0 5 C0 3.35 0 1.7 0 0 Z M27 51 C24.47403741 51.23653523 21.96892793 51.42173692 19.4375 51.5625 C18.37112305 51.62727539 18.37112305 51.62727539 17.28320312 51.69335938 C15.52238088 51.79971777 13.7612168 51.90038846 12 52 C12 53.98 12 55.96 12 58 C7.38 58 2.76 58 -2 58 C-2.33 59.98 -2.66 61.96 -3 64 C-8.28 64 -13.56 64 -19 64 C-19 65.98 -19 67.96 -19 70 C-22.63 70 -26.26 70 -30 70 C-30.33 72.64 -30.66 75.28 -31 78 C-34.63 78 -38.26 78 -42 78 C-42.33 79.98 -42.66 81.96 -43 84 C-45.64 84.33 -48.28 84.66 -51 85 C-51.33 86.98 -51.66 88.96 -52 91 C-54.64 91.33 -57.28 91.66 -60 92 C-60.33 93.98 -60.66 95.96 -61 98 C-63.475 98.495 -63.475 98.495 -66 99 C-66.33 101.64 -66.66 104.28 -67 107 C-68.98 107.495 -68.98 107.495 -71 108 C-71 110.64 -71 113.28 -71 116 C-72.65 116 -74.3 116 -76 116 C-76 118.31 -76 120.62 -76 123 C-75.01 123 -74.02 123 -73 123 C-72.67 122.01 -72.34 121.02 -72 120 C-69.9375 119.3125 -69.9375 119.3125 -68 119 C-68 117.68 -68 116.36 -68 115 C-66.02 115 -64.04 115 -62 115 C-62 112.36 -62 109.72 -62 107 C-60.35 107 -58.7 107 -57 107 C-56.896875 106.360625 -56.79375 105.72125 -56.6875 105.0625 C-56.460625 104.381875 -56.23375 103.70125 -56 103 C-54.515 102.505 -54.515 102.505 -53 102 C-52.67 101.01 -52.34 100.02 -52 99 C-47.545 98.505 -47.545 98.505 -43 98 C-43 96.02 -43 94.04 -43 92 C-41.02 92 -39.04 92 -37 92 C-37 90.68 -37 89.36 -37 88 C-33.37 88 -29.74 88 -26 88 C-26 85.69 -26 83.38 -26 81 C-20.72 81 -15.44 81 -10 81 C-9.67 79.02 -9.34 77.04 -9 75 C-4.05 74.67 0.9 74.34 6 74 C6 72.02 6 70.04 6 68 C14.91 68 23.82 68 33 68 C33.33 66.68 33.66 65.36 34 64 C65.35 64 96.7 64 129 64 C129.33 66.31 129.66 68.62 130 71 C137.92 71 145.84 71 154 71 C154 72.98 154 74.96 154 77 C160.27 77.33 166.54 77.66 173 78 C173.33 80.31 173.66 82.62 174 85 C180.6 85 187.2 85 194 85 C194 86.98 194 88.96 194 91 C194.66 91 195.32 91 196 91 C196 88.36 196 85.72 196 83 C193.36 83 190.72 83 188 83 C188 80.36 188 77.72 188 75 C186.700625 74.87625 185.40125 74.7525 184.0625 74.625 C181.84765625 74.4140625 181.84765625 74.4140625 180 74 C179.67 73.34 179.34 72.68 179 72 C177.02 72 175.04 72 173 72 C173 70.02 173 68.04 173 66 C168.05 65.67 163.1 65.34 158 65 C158 63.02 158 61.04 158 59 C154.10920261 58.33773662 150.44918994 57.94580871 146.5 58 C142.55081006 58.05419129 138.89079739 57.66226338 135 57 C134.67 55.35 134.34 53.7 134 52 C132.50146484 51.90912109 132.50146484 51.90912109 130.97265625 51.81640625 C129.03712891 51.69072266 129.03712891 51.69072266 127.0625 51.5625 C125.13083984 51.44068359 125.13083984 51.44068359 123.16015625 51.31640625 C120 51 120 51 119 50 C116.1749667 49.89946492 113.37434715 49.86384284 110.54882812 49.87060547 C109.66271347 49.86885315 108.77659882 49.86710083 107.8636322 49.86529541 C104.91948518 49.8608756 101.97539769 49.86381533 99.03125 49.8671875 C96.99483224 49.8665145 94.95841456 49.8655445 92.92199707 49.86428833 C88.64802284 49.86281118 84.37406947 49.86496645 80.10009766 49.86962891 C74.60841461 49.8753262 69.11678043 49.87204729 63.62509918 49.86605644 C59.41822946 49.86245128 55.21137141 49.86358921 51.00450134 49.86618423 C48.97899876 49.86685363 46.95349514 49.86602465 44.92799377 49.86370468 C42.1023577 49.8611789 39.27680193 49.8650177 36.45117188 49.87060547 C35.18254555 49.86756912 35.18254555 49.86756912 33.88829041 49.86447144 C30.13940254 49.51557623 30.13940254 49.51557623 27 51 Z M198 91 C198 93.31 198 95.62 198 98 C200.31 98 202.62 98 205 98 C205 95.69 205 93.38 205 91 C202.69 91 200.38 91 198 91 Z M207 99 C207 99.99 207 100.98 207 102 C207.99 102 208.98 102 210 102 C210 101.01 210 100.02 210 99 C209.01 99 208.02 99 207 99 Z M216 108 C216 110.31 216 112.62 216 115 C217.32 115 218.64 115 220 115 C220 112.69 220 110.38 220 108 C218.68 108 217.36 108 216 108 Z M225 119 C225 119.99 225 120.98 225 122 C225.99 122 226.98 122 228 122 C228 121.01 228 120.02 228 119 C227.01 119 226.02 119 225 119 Z M-81 125 C-81 127.31 -81 129.62 -81 132 C-80.01 132 -79.02 132 -78 132 C-78 129.69 -78 127.38 -78 125 C-78.99 125 -79.98 125 -81 125 Z M-90 140 C-90 142.64 -90 145.28 -90 148 C-89.01 148 -88.02 148 -87 148 C-87 145.36 -87 142.72 -87 140 C-87.99 140 -88.98 140 -90 140 Z " fill="#040304" transform="translate(220,15)"/>
<path d="M0 0 C44.22 0 88.44 0 134 0 C134 2.64 134 5.28 134 8 C140.6 8 147.2 8 154 8 C154 9.65 154 11.3 154 13 C157.63 13 161.26 13 165 13 C165 14.65 165 16.3 165 18 C169.29 18 173.58 18 178 18 C178 19.98 178 21.96 178 24 C181.96 24 185.92 24 190 24 C190 26.64 190 29.28 190 32 C193.3 32 196.6 32 200 32 C200 34.31 200 36.62 200 39 C201.98 39 203.96 39 206 39 C206 41.31 206 43.62 206 46 C208.31 46 210.62 46 213 46 C213 48.31 213 50.62 213 53 C214.98 53 216.96 53 219 53 C219 55.97 219 58.94 219 62 C221.97 62 224.94 62 228 62 C228 64.64 228 67.28 228 70 C230.31 70 232.62 70 235 70 C235 74.29 235 78.58 235 83 C236.98 83 238.96 83 241 83 C241 87.95 241 92.9 241 98 C242.98 98 244.96 98 247 98 C247 102.29 247 106.58 247 111 C248.65 111 250.3 111 252 111 C252 116.94 252 122.88 252 129 C250.02 129 248.04 129 246 129 C246 126.03 246 123.06 246 120 C244.35 120 242.7 120 241 120 C241 117.03 241 114.06 241 111 C239.68 111 238.36 111 237 111 C237 108.36 237 105.72 237 103 C235.68 103 234.36 103 233 103 C233 100.36 233 97.72 233 95 C230.69 95 228.38 95 226 95 C226 92.03 226 89.06 226 86 C224.02 86 222.04 86 220 86 C220 83.69 220 81.38 220 79 C218.68 79 217.36 79 216 79 C216 77.35 216 75.7 216 74 C214.02 74 212.04 74 210 74 C210 71.69 210 69.38 210 67 C207.69 67 205.38 67 203 67 C203 65.35 203 63.7 203 62 C201.02 62 199.04 62 197 62 C197 60.68 197 59.36 197 58 C194.69 58 192.38 58 190 58 C190 55.03 190 52.06 190 49 C186.7 49 183.4 49 180 49 C180 47.68 180 46.36 180 45 C178.35 45 176.7 45 175 45 C175 43.35 175 41.7 175 40 C170.05 40 165.1 40 160 40 C160 38.02 160 36.04 160 34 C152.41 34 144.82 34 137 34 C137 31.69 137 29.38 137 27 C132.05 27 127.1 27 122 27 C122 26.34 122 25.68 122 25 C87.68 25 53.36 25 18 25 C18 25.66 18 26.32 18 27 C13.05 27 8.1 27 3 27 C3 29.31 3 31.62 3 34 C-1.29 34 -5.58 34 -10 34 C-10 35.65 -10 37.3 -10 39 C-15.61 39 -21.22 39 -27 39 C-27 40.98 -27 42.96 -27 45 C-31.29 45 -35.58 45 -40 45 C-40 46.98 -40 48.96 -40 51 C-41.65 51 -43.3 51 -45 51 C-45 51.99 -45 52.98 -45 54 C-46.65 54 -48.3 54 -50 54 C-50 55.32 -50 56.64 -50 58 C-51.65 58 -53.3 58 -55 58 C-55 59.65 -55 61.3 -55 63 C-57.64 63 -60.28 63 -63 63 C-63 64.65 -63 66.3 -63 68 C-65.64 68 -68.28 68 -71 68 C-71 70.31 -71 72.62 -71 75 C-72.65 75 -74.3 75 -76 75 C-76 77.64 -76 80.28 -76 83 C-78.64 83 -81.28 83 -84 83 C-84 87.95 -84 92.9 -84 98 C-86.31 98 -88.62 98 -91 98 C-91 100.97 -91 103.94 -91 107 C-93.64 107 -96.28 107 -99 107 C-99 111.62 -99 116.24 -99 121 C-101.31 121 -103.62 121 -106 121 C-106 126.61 -106 132.22 -106 138 C-106.99 138 -107.98 138 -109 138 C-109 141.96 -109 145.92 -109 150 C-116.92 150 -124.84 150 -133 150 C-133 137.79 -133 125.58 -133 113 C-132.01 113 -131.02 113 -130 113 C-130 108.38 -130 103.76 -130 99 C-127.69 99 -125.38 99 -123 99 C-123 94.05 -123 89.1 -123 84 C-120.36 84 -117.72 84 -115 84 C-115 80.7 -115 77.4 -115 74 C-112.69 74 -110.38 74 -108 74 C-108 71.69 -108 69.38 -108 67 C-105.36 67 -102.72 67 -100 67 C-100 64.69 -100 62.38 -100 60 C-97.36 60 -94.72 60 -92 60 C-92 57.36 -92 54.72 -92 52 C-89.69 52 -87.38 52 -85 52 C-85 49.36 -85 46.72 -85 44 C-82.03 44 -79.06 44 -76 44 C-76 41.69 -76 39.38 -76 37 C-73.36 37 -70.72 37 -68 37 C-68 34.36 -68 31.72 -68 29 C-65.03 29 -62.06 29 -59 29 C-59 27.02 -59 25.04 -59 23 C-56.03 23 -53.06 23 -50 23 C-50 21.02 -50 19.04 -50 17 C-46.37 17 -42.74 17 -39 17 C-39 15.35 -39 13.7 -39 12 C-35.04 12 -31.08 12 -27 12 C-27 11.34 -27 10.68 -27 10 C-22.38 10 -17.76 10 -13 10 C-13 9.01 -13 8.02 -13 7 C-8.71 7 -4.42 7 0 7 C0 4.69 0 2.38 0 0 Z " fill="#C095D4" transform="translate(223,27)"/>
<path d="M0 0 C16.83 0 33.66 0 51 0 C51 1.98 51 3.96 51 6 C54.3 6 57.6 6 61 6 C61 8.97 61 11.94 61 15 C62.98 15 64.96 15 67 15 C67 17.64 67 20.28 67 23 C59.41 23 51.82 23 44 23 C44 24.65 44 26.3 44 28 C41.69 28 39.38 28 37 28 C37 29.32 37 30.64 37 32 C35.02 32 33.04 32 31 32 C31 35.63 31 39.26 31 43 C28.69 43 26.38 43 24 43 C24 54.22 24 65.44 24 77 C25.65 77 27.3 77 29 77 C29 81.29 29 85.58 29 90 C30.98 90 32.96 90 35 90 C35 92.31 35 94.62 35 97 C36.98 97 38.96 97 41 97 C41 98.98 41 100.96 41 103 C51.23 103 61.46 103 72 103 C72 101.02 72 99.04 72 97 C73.98 97 75.96 97 78 97 C78 94.69 78 92.38 78 90 C79.32 90 80.64 90 82 90 C82 92.97 82 95.94 82 99 C80.02 99 78.04 99 76 99 C76 103.95 76 108.9 76 114 C73.69 114 71.38 114 69 114 C69 115.98 69 117.96 69 120 C66.69 120 64.38 120 62 120 C62 121.98 62 123.96 62 126 C59.36 126 56.72 126 54 126 C54 127.98 54 129.96 54 132 C38.16 132 22.32 132 6 132 C6 130.02 6 128.04 6 126 C2.37 126 -1.26 126 -5 126 C-5 123.69 -5 121.38 -5 119 C-6.98 119 -8.96 119 -11 119 C-11 117.35 -11 115.7 -11 114 C-12.98 114 -14.96 114 -17 114 C-17 109.05 -17 104.1 -17 99 C-18.98 99 -20.96 99 -23 99 C-23 96.03 -23 93.06 -23 90 C-25.31 90 -27.62 90 -30 90 C-30.20638953 52.34184945 -30.20638953 52.34184945 -29 35 C-26.69 35 -24.38 35 -22 35 C-22 30.38 -22 25.76 -22 21 C-19.69 21 -17.38 21 -15 21 C-15 18.03 -15 15.06 -15 12 C-12.69 12 -10.38 12 -8 12 C-8 10.35 -8 8.7 -8 7 C-5.36 7 -2.72 7 0 7 C0 4.69 0 2.38 0 0 Z " fill="#CCA1DF" transform="translate(375,161)"/>
<path d="M0 0 C9.57 0 19.14 0 29 0 C29 2.31 29 4.62 29 7 C30.98 7 32.96 7 35 7 C35 11.29 35 15.58 35 20 C36.98 20 38.96 20 41 20 C41 25.61 41 31.22 41 37 C42.98 37 44.96 37 47 37 C47 59.44 47 81.88 47 105 C45.02 105 43.04 105 41 105 C41 109.29 41 113.58 41 118 C39.02 118 37.04 118 35 118 C35 120.31 35 122.62 35 125 C32.69 125 30.38 125 28 125 C28 126.98 28 128.96 28 131 C25.36 131 22.72 131 20 131 C20 132.98 20 134.96 20 137 C14.72 137 9.44 137 4 137 C4 135.02 4 133.04 4 131 C1.36 131 -1.28 131 -4 131 C-4 129.02 -4 127.04 -4 125 C-6.31 125 -8.62 125 -11 125 C-11.33 122.69 -11.66 120.38 -12 118 C-13.65 117.67 -15.3 117.34 -17 117 C-17 111.72 -17 106.44 -17 101 C-19.97 101 -22.94 101 -26 101 C-26 78.56 -26 56.12 -26 33 C-23.03 33 -20.06 33 -17 33 C-17 27.72 -17 22.44 -17 17 C-15.02 17 -13.04 17 -11 17 C-11 15.68 -11 14.36 -11 13 C-10.34 13 -9.68 13 -9 13 C-9 10.36 -9 7.72 -9 5 C-6.03 5 -3.06 5 0 5 C0 3.35 0 1.7 0 0 Z " fill="#C093D4" transform="translate(62,189)"/>
<path d="M0 0 C6.93 0 13.86 0 21 0 C21 2.31 21 4.62 21 7 C23.64 7 26.28 7 29 7 C29.33 8.65 29.66 10.3 30 12 C31.32 12.33 32.64 12.66 34 13 C34 14.65 34 16.3 34 18 C35.32 18 36.64 18 38 18 C38 19.98 38 21.96 38 24 C39.98 24 41.96 24 44 24 C44 28.62 44 33.24 44 38 C46.97 38 49.94 38 53 38 C53 61.76 53 85.52 53 110 C50.03 110 47.06 110 44 110 C44 113.63 44 117.26 44 121 C42.35 121 40.7 121 39 121 C39 122.65 39 124.3 39 126 C37.02 126 35.04 126 33 126 C33 127.98 33 129.96 33 132 C30.36 132 27.72 132 25 132 C25 133.32 25 134.64 25 136 C20.71 136 16.42 136 12 136 C12 133.03 12 130.06 12 127 C13.65 127 15.3 127 17 127 C17 122.38 17 117.76 17 113 C18.32 113 19.64 113 21 113 C21 91.22 21 69.44 21 47 C20.01 47 19.02 47 18 47 C18 42.71 18 38.42 18 34 C16.02 34 14.04 34 12 34 C12 29.71 12 25.42 12 21 C10.68 21 9.36 21 8 21 C8 18.03 8 15.06 8 12 C6.68 12 5.36 12 4 12 C4 10.35 4 8.7 4 7 C2.68 7 1.36 7 0 7 C0 4.69 0 2.38 0 0 Z " fill="#BF94D3" transform="translate(482,167)"/>
<path d="M0 0 C6.27 0 12.54 0 19 0 C19 1.32 19 2.64 19 4 C20.32 4 21.64 4 23 4 C23 6.64 23 9.28 23 12 C25.31 12 27.62 12 30 12 C30 13.98 30 15.96 30 18 C31.98 18 33.96 18 36 18 C36 21.63 36 25.26 36 29 C37.65 29 39.3 29 41 29 C41 55.07 41 81.14 41 108 C38.69 108 36.38 108 34 108 C34 112.29 34 116.58 34 121 C32.02 121 30.04 121 28 121 C28 124.63 28 128.26 28 132 C25.03 132 22.06 132 19 132 C19 134.31 19 136.62 19 139 C10.75 139 2.5 139 -6 139 C-6 137.68 -6 136.36 -6 135 C-4.02 135 -2.04 135 0 135 C0 133.35 0 131.7 0 130 C1.98 130 3.96 130 6 130 C6 126.04 6 122.08 6 118 C7.98 118 9.96 118 12 118 C12 114.7 12 111.4 12 108 C14.31 108 16.62 108 19 108 C19 84.57 19 61.14 19 37 C17.02 37 15.04 37 13 37 C13 33.37 13 29.74 13 26 C11.35 26 9.7 26 8 26 C8 21.71 8 17.42 8 13 C7.01 13 6.02 13 5 13 C5 11.02 5 9.04 5 7 C3.35 7 1.7 7 0 7 C0 4.69 0 2.38 0 0 Z " fill="#775D81" transform="translate(102,189)"/>
<path d="M0 0 C9.57 0 19.14 0 29 0 C29 0.99 29 1.98 29 3 C36.425 3.99 36.425 3.99 44 5 C44 5.99 44 6.98 44 8 C47.63 8.66 51.26 9.32 55 10 C55 10.66 55 11.32 55 12 C57.31 12.33 59.62 12.66 62 13 C62 13.99 62 14.98 62 16 C63.65 16.33 65.3 16.66 67 17 C67 17.66 67 18.32 67 19 C68.65 19.33 70.3 19.66 72 20 C72 20.99 72 21.98 72 23 C73.98 23.495 73.98 23.495 76 24 C76 24.66 76 25.32 76 26 C76.66 26 77.32 26 78 26 C78 26.66 78 27.32 78 28 C78.66 28 79.32 28 80 28 C80 29.98 80 31.96 80 34 C79.34 34 78.68 34 78 34 C78 34.66 78 35.32 78 36 C76.35 36 74.7 36 73 36 C73 35.34 73 34.68 73 34 C72.34 34 71.68 34 71 34 C70.505 32.02 70.505 32.02 70 30 C68.68 30 67.36 30 66 30 C66 29.34 66 28.68 66 28 C65.01 28 64.02 28 63 28 C63 27.34 63 26.68 63 26 C62.01 26 61.02 26 60 26 C59.505 25.01 59.505 25.01 59 24 C56.97536745 23.34786708 56.97536745 23.34786708 55 23 C55 22.34 55 21.68 55 21 C53.68 21 52.36 21 51 21 C51 20.34 51 19.68 51 19 C49.68 19 48.36 19 47 19 C47 18.34 47 17.68 47 17 C44.69 16.67 42.38 16.34 40 16 C40 15.34 40 14.68 40 14 C24.53263802 11.88764018 9.56588189 12.07074844 -6 13 C-6.33 13.99 -6.66 14.98 -7 16 C-11.95 16.33 -16.9 16.66 -22 17 C-22 17.66 -22 18.32 -22 19 C-22.99 19 -23.98 19 -25 19 C-25 19.66 -25 20.32 -25 21 C-28.3 21.66 -31.6 22.32 -35 23 C-35 23.66 -35 24.32 -35 25 C-36.98 25.33 -38.96 25.66 -41 26 C-41.33 27.65 -41.66 29.3 -42 31 C-44.31 31 -46.62 31 -49 31 C-49 27.37 -49 23.74 -49 20 C-48.01 20 -47.02 20 -46 20 C-46 19.01 -46 18.02 -46 17 C-45.01 17 -44.02 17 -43 17 C-43 16.34 -43 15.68 -43 15 C-42.34 15 -41.68 15 -41 15 C-41 14.34 -41 13.68 -41 13 C-39.75336669 12.49166409 -38.50250613 11.99368855 -37.25 11.5 C-36.55390625 11.2215625 -35.8578125 10.943125 -35.140625 10.65625 C-33 10 -33 10 -29 10 C-29 9.34 -29 8.68 -29 8 C-25.535 7.505 -25.535 7.505 -22 7 C-22 6.01 -22 5.02 -22 4 C-15.4 4 -8.8 4 -2 4 C-2 3.34 -2 2.68 -2 2 C-1.34 2 -0.68 2 0 2 C0 1.34 0 0.68 0 0 Z " fill="#C69CD9" transform="translate(210,226)"/>
<path d="M0 0 C3.3 0 6.6 0 10 0 C10 2.31 10 4.62 10 7 C11.98 7 13.96 7 16 7 C16 9.31 16 11.62 16 14 C18.31 14 20.62 14 23 14 C23 16.31 23 18.62 23 21 C24.98 21 26.96 21 29 21 C29 23.97 29 26.94 29 30 C31.97 30 34.94 30 38 30 C38 32.64 38 35.28 38 38 C40.31 38 42.62 38 45 38 C45 42.29 45 46.58 45 51 C46.98 51 48.96 51 51 51 C51 55.95 51 60.9 51 66 C52.98 66 54.96 66 57 66 C57 70.29 57 74.58 57 79 C58.65 79 60.3 79 62 79 C62 84.94 62 90.88 62 97 C60.02 97 58.04 97 56 97 C56 94.03 56 91.06 56 88 C54.35 88 52.7 88 51 88 C51 85.03 51 82.06 51 79 C49.68 79 48.36 79 47 79 C47 76.36 47 73.72 47 71 C45.68 71 44.36 71 43 71 C43 68.36 43 65.72 43 63 C40.69 63 38.38 63 36 63 C36 60.03 36 57.06 36 54 C34.02 54 32.04 54 30 54 C30 51.69 30 49.38 30 47 C28.68 47 27.36 47 26 47 C26 45.35 26 43.7 26 42 C24.02 42 22.04 42 20 42 C20 39.69 20 37.38 20 35 C17.69 35 15.38 35 13 35 C13 33.35 13 31.7 13 30 C11.02 30 9.04 30 7 30 C7 28.68 7 27.36 7 26 C4.69 26 2.38 26 0 26 C0 23.03 0 20.06 0 17 C2 20 2 20 3 23 C4.98 23 6.96 23 9 23 C11.23708645 18.84541088 13 14.76123067 13 10 C10.69 9.34 8.38 8.68 6 8 C5.67 6.68 5.34 5.36 5 4 C5.66 4 6.32 4 7 4 C7 3.34 7 2.68 7 2 C4.69 1.67 2.38 1.34 0 1 C0 0.67 0 0.34 0 0 Z " fill="#BE97D3" transform="translate(413,59)"/>
<path d="M0 0 C1.98 0 3.96 0 6 0 C6 1.98 6 3.96 6 6 C7.32 6 8.64 6 10 6 C10 8.31 10 10.62 10 13 C11.98 13 13.96 13 16 13 C16 15.97 16 18.94 16 22 C17.65 22 19.3 22 21 22 C21 27.61 21 33.22 21 39 C22.98 39 24.96 39 27 39 C27 63.42 27 87.84 27 113 C26.34 113 25.68 113 25 113 C25 117.62 25 122.24 25 127 C24.01 127 23.02 127 22 127 C22 129.31 22 131.62 22 134 C20.35 134 18.7 134 17 134 C17 135.32 17 136.64 17 138 C14.36 138 11.72 138 9 138 C9 136.35 9 134.7 9 133 C10.65 133 12.3 133 14 133 C14 131.35 14 129.7 14 128 C14.99 128 15.98 128 17 128 C17 119.42 17 110.84 17 102 C18.65 102 20.3 102 22 102 C22 87.81 22 73.62 22 59 C21.34 59 20.68 59 20 59 C20 53.06 20 47.12 20 41 C18.35 41 16.7 41 15 41 C15 37.04 15 33.08 15 29 C13.35 29 11.7 29 10 29 C10 26.36 10 23.72 10 21 C8.35 21 6.7 21 5 21 C5 16.38 5 11.76 5 7 C3.35 7 1.7 7 0 7 C0 4.69 0 2.38 0 0 Z " fill="#796283" transform="translate(464,167)"/>
<path d="M0 0 C6.93 0 13.86 0 21 0 C21 2.31 21 4.62 21 7 C23.64 7 26.28 7 29 7 C29.33 8.65 29.66 10.3 30 12 C31.32 12.33 32.64 12.66 34 13 C34 14.65 34 16.3 34 18 C35.32 18 36.64 18 38 18 C37.34 20.31 36.68 22.62 36 25 C34.02 25 32.04 25 30 25 C30 23.68 30 22.36 30 21 C29.2575 20.855625 28.515 20.71125 27.75 20.5625 C25.47972261 20.09812508 23.24240521 19.58136431 21 19 C21 21.31 21 23.62 21 26 C20.34 26 19.68 26 19 26 C19.15597656 26.64066406 19.31195313 27.28132813 19.47265625 27.94140625 C20.6948195 33.37234363 21.18466226 37.55055361 20 43 C19.34 43 18.68 43 18 43 C18 40.03 18 37.06 18 34 C16.02 34 14.04 34 12 34 C12 29.71 12 25.42 12 21 C10.68 21 9.36 21 8 21 C8 18.03 8 15.06 8 12 C6.68 12 5.36 12 4 12 C4 10.35 4 8.7 4 7 C2.68 7 1.36 7 0 7 C0 4.69 0 2.38 0 0 Z " fill="#BE96D3" transform="translate(482,167)"/>
<path d="M0 0 C4.29 0.66 8.58 1.32 13 2 C13 2.99 13 3.98 13 5 C16.63 5.66 20.26 6.32 24 7 C24 7.66 24 8.32 24 9 C26.31 9.33 28.62 9.66 31 10 C31 10.99 31 11.98 31 13 C32.65 13.33 34.3 13.66 36 14 C36 14.66 36 15.32 36 16 C37.65 16.33 39.3 16.66 41 17 C41 17.99 41 18.98 41 20 C42.98 20.495 42.98 20.495 45 21 C45 21.66 45 22.32 45 23 C45.66 23 46.32 23 47 23 C47 23.66 47 24.32 47 25 C47.66 25 48.32 25 49 25 C49 26.98 49 28.96 49 31 C48.34 31 47.68 31 47 31 C47 31.66 47 32.32 47 33 C45.35 33 43.7 33 42 33 C42 32.34 42 31.68 42 31 C41.34 31 40.68 31 40 31 C39.505 29.02 39.505 29.02 39 27 C37.68 27 36.36 27 35 27 C35 26.34 35 25.68 35 25 C34.01 25 33.02 25 32 25 C32 24.34 32 23.68 32 23 C31.01 23 30.02 23 29 23 C28.505 22.01 28.505 22.01 28 21 C25.97536745 20.34786708 25.97536745 20.34786708 24 20 C24 19.34 24 18.68 24 18 C22.68 18 21.36 18 20 18 C20 17.34 20 16.68 20 16 C18.68 16 17.36 16 16 16 C16 15.34 16 14.68 16 14 C13.69 13.67 11.38 13.34 9 13 C9 12.34 9 11.68 9 11 C-6.46736198 8.88764018 -21.43411811 9.07074844 -37 10 C-37.33 10.99 -37.66 11.98 -38 13 C-41.3 13 -44.6 13 -48 13 C-48 12.67 -48 12.34 -48 12 C-44.7 11.67 -41.4 11.34 -38 11 C-38 10.01 -38 9.02 -38 8 C-36.68 7.34 -35.36 6.68 -34 6 C-34 6.66 -34 7.32 -34 8 C-33.06542969 7.855625 -32.13085938 7.71125 -31.16796875 7.5625 C-20.39837839 6.00535047 -9.86901142 5.78734543 1 6 C0.505 3.03 0.505 3.03 0 0 Z " fill="#C4A3D4" transform="translate(241,229)"/>
<path d="M0 0 C0.80566406 0.00322266 1.61132812 0.00644531 2.44140625 0.00976562 C3.70404297 0.02233398 3.70404297 0.02233398 4.9921875 0.03515625 C5.84167969 0.03966797 6.69117188 0.04417969 7.56640625 0.04882812 C9.66669659 0.06062751 11.7669508 0.07856319 13.8671875 0.09765625 C13.8671875 2.40765625 13.8671875 4.71765625 13.8671875 7.09765625 C5.4521875 7.59265625 5.4521875 7.59265625 -3.1328125 8.09765625 C-3.1328125 10.73765625 -3.1328125 13.37765625 -3.1328125 16.09765625 C-13.0328125 16.59265625 -13.0328125 16.59265625 -23.1328125 17.09765625 C-23.1328125 18.41765625 -23.1328125 19.73765625 -23.1328125 21.09765625 C-24.4528125 21.09765625 -25.7728125 21.09765625 -27.1328125 21.09765625 C-27.1328125 22.41765625 -27.1328125 23.73765625 -27.1328125 25.09765625 C-28.7828125 25.09765625 -30.4328125 25.09765625 -32.1328125 25.09765625 C-32.1328125 26.41765625 -32.1328125 27.73765625 -32.1328125 29.09765625 C-35.1028125 29.09765625 -38.0728125 29.09765625 -41.1328125 29.09765625 C-41.1328125 27.44765625 -41.1328125 25.79765625 -41.1328125 24.09765625 C-39.8128125 24.09765625 -38.4928125 24.09765625 -37.1328125 24.09765625 C-37.1328125 23.10765625 -37.1328125 22.11765625 -37.1328125 21.09765625 C-35.8128125 21.09765625 -34.4928125 21.09765625 -33.1328125 21.09765625 C-33.1328125 19.77765625 -33.1328125 18.45765625 -33.1328125 17.09765625 C-30.8228125 17.09765625 -28.5128125 17.09765625 -26.1328125 17.09765625 C-26.1328125 15.44765625 -26.1328125 13.79765625 -26.1328125 12.09765625 C-24.8128125 12.09765625 -23.4928125 12.09765625 -22.1328125 12.09765625 C-22.1328125 11.10765625 -22.1328125 10.11765625 -22.1328125 9.09765625 C-21.1428125 9.09765625 -20.1528125 9.09765625 -19.1328125 9.09765625 C-19.1328125 8.43765625 -19.1328125 7.77765625 -19.1328125 7.09765625 C-20.4528125 6.76765625 -21.7728125 6.43765625 -23.1328125 6.09765625 C-19.5028125 5.76765625 -15.8728125 5.43765625 -12.1328125 5.09765625 C-12.1328125 4.43765625 -12.1328125 3.77765625 -12.1328125 3.09765625 C-10.1528125 3.09765625 -8.1728125 3.09765625 -6.1328125 3.09765625 C-6.1328125 2.43765625 -6.1328125 1.77765625 -6.1328125 1.09765625 C-3.8362755 -0.05061225 -2.54968083 -0.0179555 0 0 Z " fill="#EBD1F5" transform="translate(200.1328125,38.90234375)"/>
<path d="M0 0 C1.98 0 3.96 0 6 0 C6 1.98 6 3.96 6 6 C7.32 6 8.64 6 10 6 C10 8.31 10 10.62 10 13 C11.98 13 13.96 13 16 13 C16 15.97 16 18.94 16 22 C17.65 22 19.3 22 21 22 C21 27.61 21 33.22 21 39 C22.98 39 24.96 39 27 39 C27 63.42 27 87.84 27 113 C26.34 113 25.68 113 25 113 C25 117.62 25 122.24 25 127 C23.515 126.505 23.515 126.505 22 126 C22.66 126 23.32 126 24 126 C23.62875 125.38125 23.2575 124.7625 22.875 124.125 C21.58945726 119.53377594 22.70132723 115.52440834 24 111 C24.33 110.67 24.66 110.34 25 110 C25.09413687 107.94443339 25.11742998 105.88559819 25.11352539 103.82788086 C25.11367142 103.18399918 25.11381744 102.54011749 25.1139679 101.87672424 C25.11326885 99.73939697 25.10547691 97.60215587 25.09765625 95.46484375 C25.09579204 93.98653715 25.09436815 92.50822993 25.09336853 91.02992249 C25.08954359 87.13201198 25.07971352 83.23413851 25.06866455 79.33624268 C25.05844992 75.36153667 25.0538708 71.38682471 25.04882812 67.41210938 C25.03809122 59.608056 25.02101509 51.80403318 25 44 C23.68 45.32 22.36 46.64 21 48 C20.67 45.69 20.34 43.38 20 41 C18.35 41 16.7 41 15 41 C15 37.04 15 33.08 15 29 C13.35 29 11.7 29 10 29 C10 26.36 10 23.72 10 21 C8.35 21 6.7 21 5 21 C5 16.38 5 11.76 5 7 C3.35 7 1.7 7 0 7 C0 4.69 0 2.38 0 0 Z " fill="#725E7A" transform="translate(464,167)"/>
<path d="M0 0 C2.64 0 5.28 0 8 0 C8 3.63 8 7.26 8 11 C5.03 11 2.06 11 -1 11 C-1 16.61 -1 22.22 -1 28 C-3.64 28 -6.28 28 -9 28 C-9 29.32 -9 30.64 -9 32 C-11.31 32 -13.62 32 -16 32 C-16 29.36 -16 26.72 -16 24 C-15.01 24 -14.02 24 -13 24 C-13 21.36 -13 18.72 -13 16 C-11.35 16 -9.7 16 -8 16 C-8 13.36 -8 10.72 -8 8 C-6.68 8 -5.36 8 -4 8 C-4 6.02 -4 4.04 -4 2 C-2.68 2 -1.36 2 0 2 C0 1.34 0 0.68 0 0 Z " fill="#ECD5F5" transform="translate(66,201)"/>
<path d="M0 0 C2.31 0 4.62 0 7 0 C7 4.29 7 8.58 7 13 C8.98 13 10.96 13 13 13 C13 17.95 13 22.9 13 28 C14.98 28 16.96 28 19 28 C19 32.29 19 36.58 19 41 C20.65 41 22.3 41 24 41 C24 46.94 24 52.88 24 59 C22.02 59 20.04 59 18 59 C18 56.03 18 53.06 18 50 C16.35 50 14.7 50 13 50 C13 47.03 13 44.06 13 41 C11.68 41 10.36 41 9 41 C9 38.36 9 35.72 9 33 C7.68 33 6.36 33 5 33 C5 30.36 5 27.72 5 25 C5.33 25 5.66 25 6 25 C6 27.31 6 29.62 6 32 C7.65 31.67 9.3 31.34 11 31 C11.33 31.99 11.66 32.98 12 34 C12 27.4 12 20.8 12 14 C10.02 14 8.04 14 6 14 C6 9.71 6 5.42 6 1 C4.02 1 2.04 1 0 1 C0 0.67 0 0.34 0 0 Z " fill="#9F81B1" transform="translate(451,97)"/>
<path d="M0 0 C1.70586575 1.62652316 3.3777546 3.29006566 5 5 C5.99 5 6.98 5 8 5 C8 5.66 8 6.32 8 7 C7.01 7 6.02 7 5 7 C5 7.66 5 8.32 5 9 C1.7 9.66 -1.6 10.32 -5 11 C-5 11.66 -5 12.32 -5 13 C-6.98 13.33 -8.96 13.66 -11 14 C-11.33 15.65 -11.66 17.3 -12 19 C-14.31 19 -16.62 19 -19 19 C-19 15.37 -19 11.74 -19 8 C-18.01 8 -17.02 8 -16 8 C-16 7.01 -16 6.02 -16 5 C-15.01 5 -14.02 5 -13 5 C-13 4.34 -13 3.68 -13 3 C-12.34 3 -11.68 3 -11 3 C-11 2.34 -11 1.68 -11 1 C-6.9359666 -1.0320167 -4.36297288 -1.36342902 0 0 Z " fill="#B593C6" transform="translate(180,238)"/>
<path d="M0 0 C0.66 0.33 1.32 0.66 2 1 C1.34 1.99 0.68 2.98 0 4 C0 4.99 0 5.98 0 7 C-3.33333333 7 -6.66666667 7 -10 7 C-10 7.99 -10 8.98 -10 10 C-13.3 10.33 -16.6 10.66 -20 11 C-20 11.66 -20 12.32 -20 13 C-23.3 13.33 -26.6 13.66 -30 14 C-30.433125 13.175 -30.86625 12.35 -31.3125 11.5 C-31.869375 10.675 -32.42625 9.85 -33 9 C-33.99 9 -34.98 9 -36 9 C-36 8.34 -36 7.68 -36 7 C-35.39671875 6.80664062 -34.7934375 6.61328125 -34.171875 6.4140625 C-33.37265625 6.15367187 -32.5734375 5.89328125 -31.75 5.625 C-30.96109375 5.36976563 -30.1721875 5.11453125 -29.359375 4.8515625 C-27.03567483 4.08692116 -27.03567483 4.08692116 -25.17553711 2.97045898 C-22.60245087 1.82266212 -20.64293523 1.69984261 -17.83203125 1.62109375 C-16.85685547 1.58693359 -15.88167969 1.55277344 -14.87695312 1.51757812 C-13.36004883 1.47793945 -13.36004883 1.47793945 -11.8125 1.4375 C-9.79805013 1.3778408 -7.78371128 1.31425777 -5.76953125 1.24609375 C-4.87854736 1.22216553 -3.98756348 1.1982373 -3.06958008 1.17358398 C-1.00988121 1.22505863 -1.00988121 1.22505863 0 0 Z " fill="#C49BD9" transform="translate(213,230)"/>
<path d="M0 0 C4.29 0.66 8.58 1.32 13 2 C13 2.99 13 3.98 13 5 C16.63 5.66 20.26 6.32 24 7 C23.67 7.66 23.34 8.32 23 9 C19.33333333 9 15.66666667 9 12 9 C12.495 10.98 12.495 10.98 13 13 C11.68 13 10.36 13 9 13 C9 12.34 9 11.68 9 11 C-6.46736198 8.88764018 -21.43411811 9.07074844 -37 10 C-37.33 10.99 -37.66 11.98 -38 13 C-41.3 13 -44.6 13 -48 13 C-48 12.67 -48 12.34 -48 12 C-44.7 11.67 -41.4 11.34 -38 11 C-38 10.01 -38 9.02 -38 8 C-36.68 7.34 -35.36 6.68 -34 6 C-34 6.66 -34 7.32 -34 8 C-33.06542969 7.855625 -32.13085938 7.71125 -31.16796875 7.5625 C-20.39837839 6.00535047 -9.86901142 5.78734543 1 6 C0.505 3.03 0.505 3.03 0 0 Z " fill="#C29DD1" transform="translate(241,229)"/>
<path d="M0 0 C0.33 0 0.66 0 1 0 C1 19.14 1 38.28 1 58 C-2.54581311 54.45418689 -2.5360629 52.39833364 -2.6875 47.6875 C-2.72093506 46.95926025 -2.75437012 46.23102051 -2.78881836 45.48071289 C-3.18322799 35.66144974 -3.08910325 25.82466136 -3 16 C-3.66 16 -4.32 16 -5 16 C-5 11.71 -5 7.42 -5 3 C-4.01 3.495 -4.01 3.495 -3 4 C-2.525625 3.34 -2.05125 2.68 -1.5625 2 C-1.046875 1.34 -0.53125 0.68 0 0 Z " fill="#7B6384" transform="translate(489,210)"/>
<path d="M0 0 C0.80566406 0.00322266 1.61132812 0.00644531 2.44140625 0.00976562 C3.70404297 0.02233398 3.70404297 0.02233398 4.9921875 0.03515625 C6.26642578 0.04192383 6.26642578 0.04192383 7.56640625 0.04882812 C9.66669659 0.06062751 11.7669508 0.07856319 13.8671875 0.09765625 C13.8671875 2.40765625 13.8671875 4.71765625 13.8671875 7.09765625 C5.4521875 7.59265625 5.4521875 7.59265625 -3.1328125 8.09765625 C-3.1328125 7.43765625 -3.1328125 6.77765625 -3.1328125 6.09765625 C-6.1028125 6.09765625 -9.0728125 6.09765625 -12.1328125 6.09765625 C-12.1328125 7.41765625 -12.1328125 8.73765625 -12.1328125 10.09765625 C-15.4328125 10.09765625 -18.7328125 10.09765625 -22.1328125 10.09765625 C-21.1428125 9.76765625 -20.1528125 9.43765625 -19.1328125 9.09765625 C-19.1328125 8.43765625 -19.1328125 7.77765625 -19.1328125 7.09765625 C-20.4528125 6.76765625 -21.7728125 6.43765625 -23.1328125 6.09765625 C-17.6878125 5.60265625 -17.6878125 5.60265625 -12.1328125 5.09765625 C-12.1328125 4.43765625 -12.1328125 3.77765625 -12.1328125 3.09765625 C-10.1528125 3.09765625 -8.1728125 3.09765625 -6.1328125 3.09765625 C-6.1328125 2.43765625 -6.1328125 1.77765625 -6.1328125 1.09765625 C-3.8362755 -0.05061225 -2.54968083 -0.0179555 0 0 Z " fill="#C49ED8" transform="translate(200.1328125,38.90234375)"/>
<path d="M0 0 C2.31 0 4.62 0 7 0 C7 0.33 7 0.66 7 1 C5.02 1 3.04 1 1 1 C1.01160156 1.99902344 1.02320313 2.99804688 1.03515625 4.02734375 C1.04417969 5.31769531 1.05320312 6.60804688 1.0625 7.9375 C1.07410156 9.22527344 1.08570313 10.51304687 1.09765625 11.83984375 C1 15 1 15 0 16 C-1.99958364 16.04080783 -4.00045254 16.04254356 -6 16 C-5.9278125 16.68932617 -5.855625 17.37865234 -5.78125 18.08886719 C-4.98186304 26.49630856 -4.9159387 34.81024572 -5 43.25 C-5.28042516 54.68128785 -5.28042516 54.68128785 -4 66 C-2.07935207 67.5899433 -2.07935207 67.5899433 0 68 C0 70.64 0 73.28 0 76 C1.98 75.505 1.98 75.505 4 75 C4.33 75.99 4.66 76.98 5 78 C3.02 78 1.04 78 -1 78 C-1 75.03 -1 72.06 -1 69 C-3.31 69 -5.62 69 -8 69 C-8.20638953 31.34184945 -8.20638953 31.34184945 -7 14 C-4.69 14 -2.38 14 0 14 C0 9.38 0 4.76 0 0 Z " fill="#A48BAF" transform="translate(353,182)"/>
<path d="M0 0 C0.99 0.99 0.99 0.99 2 2 C5.08347826 2.16681109 5.08347826 2.16681109 8 2 C8 2.66 8 3.32 8 4 C8.99 4.495 8.99 4.495 10 5 C5.05 5 0.1 5 -5 5 C-5 4.34 -5 3.68 -5 3 C-39.32 3 -73.64 3 -109 3 C-109 3.66 -109 4.32 -109 5 C-113.95 5 -118.9 5 -124 5 C-121.42337719 2.42337719 -120.07916539 2.65884312 -116.5 2.4375 C-112.60401365 2.26480654 -112.60401365 2.26480654 -109 1 C-107.61734608 0.91043086 -106.23044053 0.88241874 -104.84489441 0.88647461 C-103.97429886 0.8865451 -103.10370331 0.8866156 -102.20672607 0.88668823 C-101.24929504 0.89185455 -100.29186401 0.89702087 -99.30541992 0.90234375 C-98.29878799 0.90380402 -97.29215607 0.90526428 -96.25502014 0.9067688 C-94.06367188 0.91058151 -91.87232672 0.91670507 -89.68099022 0.92483521 C-86.21394104 0.93756066 -82.74692997 0.94410493 -79.27986145 0.94897461 C-70.66561933 0.9623719 -62.05141324 0.986543 -53.43719482 1.01037598 C-46.1659446 1.03009382 -38.89470788 1.04574242 -31.62343788 1.05593872 C-28.20614334 1.06242751 -24.78890407 1.07493791 -21.37162781 1.08764648 C-19.27534025 1.09127939 -17.17905219 1.09463108 -15.08276367 1.09765625 C-14.13140533 1.10282257 -13.180047 1.10798889 -12.19985962 1.11331177 C-8.66498923 1.11359525 -5.46373121 1.09738621 -1.99482727 0.36889648 C-1.33653427 0.24716064 -0.67824127 0.1254248 0 0 Z " fill="#9B83A7" transform="translate(350,49)"/>
<path d="M0 0 C3.02419525 0.58803797 6.01758453 1.22678118 9 2 C9 3.32 9 4.64 9 6 C10.32 6 11.64 6 13 6 C13 8.64 13 11.28 13 14 C14.32 14 15.64 14 17 14 C17 16.64 17 19.28 17 22 C14.36 22 11.72 22 9 22 C9 19.36 9 16.72 9 14 C7.68 14 6.36 14 5 14 C5 11.69 5 9.38 5 7 C3.35 7 1.7 7 0 7 C0 4.69 0 2.38 0 0 Z " fill="#EBD3F7" transform="translate(503,186)"/>
<path d="M0 0 C1.98 0 3.96 0 6 0 C6 22.44 6 44.88 6 68 C5.67 68 5.34 68 5 68 C4.02258266 60.53893169 3.78829126 53.17211104 3.68359375 45.65234375 C3.6524221 43.7736837 3.6524221 43.7736837 3.62062073 41.85707092 C3.56663054 38.55774617 3.51628826 35.25839329 3.46777344 31.95898438 C3.41717071 28.58002802 3.36168889 25.20115197 3.30664062 21.82226562 C3.19997238 15.21490809 3.09811988 8.60748971 3 2 C2.01 1.67 1.02 1.34 0 1 C0 0.67 0 0.34 0 0 Z " fill="#9A7FA7" transform="translate(103,226)"/>
<path d="M0 0 C0.99 0.33 1.98 0.66 3 1 C5.33299825 1.03954234 7.66708189 1.04401732 10 1 C10.33 1.99 10.66 2.98 11 4 C12.98 4 14.96 4 17 4 C17.1875 6.375 17.1875 6.375 17 9 C14 11 14 11 11.30078125 10.7578125 C10.31464844 10.54898438 9.32851563 10.34015625 8.3125 10.125 C7.31863281 9.92132813 6.32476562 9.71765625 5.30078125 9.5078125 C4.54152344 9.34023437 3.78226562 9.17265625 3 9 C3 8.34 3 7.68 3 7 C2.01 7 1.02 7 0 7 C-0.66 5.35 -1.32 3.7 -2 2 C-1.34 1.34 -0.68 0.68 0 0 Z " fill="#C39DD6" transform="translate(254,236)"/>
<path d="M0 0 C3.96 0 7.92 0 12 0 C11.01 0.495 11.01 0.495 10 1 C10 1.66 10 2.32 10 3 C8.02 3 6.04 3 4 3 C4 3.66 4 4.32 4 5 C1.69 5.66 -0.62 6.32 -3 7 C-3 7.66 -3 8.32 -3 9 C-3.99 9 -4.98 9 -6 9 C-6 9.99 -6 10.98 -6 12 C-6.639375 12.103125 -7.27875 12.20625 -7.9375 12.3125 C-8.618125 12.539375 -9.29875 12.76625 -10 13 C-10.33 13.99 -10.66 14.98 -11 16 C-13.66666667 15.33333333 -16.33333333 14.66666667 -19 14 C-19.33 14.99 -19.66 15.98 -20 17 C-20 15.02 -20 13.04 -20 11 C-17.03 11 -14.06 11 -11 11 C-11 9.02 -11 7.04 -11 5 C-7.37 5 -3.74 5 0 5 C0 3.35 0 1.7 0 0 Z " fill="#BF9ECF" transform="translate(184,39)"/>
<path d="M0 0 C6.93 0 13.86 0 21 0 C21 2.31 21 4.62 21 7 C23.64 7 26.28 7 29 7 C29.33 8.65 29.66 10.3 30 12 C31.32 12.33 32.64 12.66 34 13 C34 14.65 34 16.3 34 18 C35.32 18 36.64 18 38 18 C37.34 20.31 36.68 22.62 36 25 C34.02 25 32.04 25 30 25 C30.33 22.69 30.66 20.38 31 18 C31.66 18 32.32 18 33 18 C33 16.68 33 15.36 33 14 C30.525 13.505 30.525 13.505 28 13 C28 12.01 28 11.02 28 10 C25.36 9.67 22.72 9.34 20 9 C20 6.36 20 3.72 20 1 C13.73 1 7.46 1 1 1 C1 2.65 1 4.3 1 6 C1.66 6.33 2.32 6.66 3 7 C2.01 7 1.02 7 0 7 C0 4.69 0 2.38 0 0 Z " fill="#91739F" transform="translate(482,167)"/>
<path d="M0 0 C0.33 1.32 0.66 2.64 1 4 C2.98 4 4.96 4 7 4 C7 6.31 7 8.62 7 11 C7.78375 10.649375 8.5675 10.29875 9.375 9.9375 C10.24125 9.628125 11.1075 9.31875 12 9 C12.66 9.33 13.32 9.66 14 10 C14 9.34 14 8.68 14 8 C15.9375 8.375 15.9375 8.375 18 9 C19 11 19 11 19 17 C33.85 17 48.7 17 64 17 C64 15.35 64 13.7 64 12 C64.33 12 64.66 12 65 12 C65 13.98 65 15.96 65 18 C49.16 18 33.32 18 17 18 C17 16.02 17 14.04 17 12 C13.37 12 9.74 12 6 12 C6 9.69 6 7.38 6 5 C4.02 5 2.04 5 0 5 C0 3.35 0 1.7 0 0 Z " fill="#AD92BA" transform="translate(364,275)"/>
<path d="M0 0 C4.29 0.66 8.58 1.32 13 2 C13 2.99 13 3.98 13 5 C16.63 5.66 20.26 6.32 24 7 C23.67 7.66 23.34 8.32 23 9 C19.33333333 9 15.66666667 9 12 9 C12.33 10.32 12.66 11.64 13 13 C11.68 13 10.36 13 9 13 C9 12.34 9 11.68 9 11 C2.4 10.34 -4.2 9.68 -11 9 C-11 8.67 -11 8.34 -11 8 C-10.02417969 7.93941406 -9.04835937 7.87882813 -8.04296875 7.81640625 C-6.77066406 7.73261719 -5.49835938 7.64882812 -4.1875 7.5625 C-2.92292969 7.48128906 -1.65835938 7.40007812 -0.35546875 7.31640625 C2.99181893 7.12815453 2.99181893 7.12815453 6 6 C6.33 6.66 6.66 7.32 7 8 C10.11332248 7.33131686 10.11332248 7.33131686 11.1875 4.9375 C11.455625 4.298125 11.72375 3.65875 12 3 C10.95199219 3.01740234 10.95199219 3.01740234 9.8828125 3.03515625 C8.97273438 3.04417969 8.06265625 3.05320313 7.125 3.0625 C5.76761719 3.07990234 5.76761719 3.07990234 4.3828125 3.09765625 C2 3 2 3 0 2 C0 1.34 0 0.68 0 0 Z " fill="#A285B0" transform="translate(241,229)"/>
<path d="M0 0 C9.57 0 19.14 0 29 0 C28.67 0.99 28.34 1.98 28 3 C28 2.34 28 1.68 28 1 C15.625 1.495 15.625 1.495 3 2 C2.67 2.99 2.34 3.98 2 5 C-2.83426815 5.76527025 -7.5493215 6.13447061 -12.4375 6.3125 C-18.7757487 6.68791453 -22.56303532 7.87877953 -28 11 C-31 11.25 -31 11.25 -33 11 C-31.68 10.67 -30.36 10.34 -29 10 C-29 9.34 -29 8.68 -29 8 C-25.535 7.505 -25.535 7.505 -22 7 C-22 6.01 -22 5.02 -22 4 C-15.4 4 -8.8 4 -2 4 C-2 3.34 -2 2.68 -2 2 C-1.34 2 -0.68 2 0 2 C0 1.34 0 0.68 0 0 Z " fill="#A188AE" transform="translate(210,226)"/>
<path d="M0 0 C2.97 0 5.94 0 9 0 C9 0.33 9 0.66 9 1 C6.36 1 3.72 1 1 1 C1.48484276 5.64586892 1.48484276 5.64586892 3 10 C2.34 10 1.68 10 1 10 C0.67 12.31 0.34 14.62 0 17 C-4.97063121 17.91297308 -9.02936879 17.91297308 -14 17 C-14 18.98 -14 20.96 -14 23 C-14.33 23 -14.66 23 -15 23 C-15 20.69 -15 18.38 -15 16 C-12.36 16 -9.72 16 -7 16 C-7 13.36 -7 10.72 -7 8 C-4.69 8 -2.38 8 0 8 C0 5.36 0 2.72 0 0 Z " fill="#B48FC5" transform="translate(138,71)"/>
<path d="M0 0 C1.65 0 3.3 0 5 0 C5 26.07 5 52.14 5 79 C2.69 79 0.38 79 -2 79 C1 77 1 77 3 76 C3 51.25 3 26.5 3 1 C2.01 0.67 1.02 0.34 0 0 Z " fill="#6A5A72" transform="translate(138,218)"/>
<path d="M0 0 C2.31 0.33 4.62 0.66 7 1 C7 1.99 7 2.98 7 4 C8.65 4.33 10.3 4.66 12 5 C12 5.66 12 6.32 12 7 C14.475 7.495 14.475 7.495 17 8 C17 8.99 17 9.98 17 11 C18.32 11.33 19.64 11.66 21 12 C21 12.66 21 13.32 21 14 C21.66 14 22.32 14 23 14 C23 14.66 23 15.32 23 16 C21.68 15.67 20.36 15.34 19 15 C19 14.34 19 13.68 19 13 C17.68 12.67 16.36 12.34 15 12 C15 11.01 15 10.02 15 9 C12.60280568 8.32041397 12.60280568 8.32041397 10 8 C7.8614515 10.1385485 7.57344937 11.13275314 7 14 C6.34 14 5.68 14 5 14 C4.67 13.34 4.34 12.68 4 12 C1.97536745 11.34786708 1.97536745 11.34786708 0 11 C0 10.34 0 9.68 0 9 C-1.32 9 -2.64 9 -4 9 C-3.67 8.34 -3.34 7.68 -3 7 C-0.69 7.33 1.62 7.66 4 8 C4.66 6.02 5.32 4.04 6 2 C4.02 2 2.04 2 0 2 C0 1.34 0 0.68 0 0 Z " fill="#AE8FBC" transform="translate(265,238)"/>
<path d="M0 0 C1.32 0 2.64 0 4 0 C3.67 1.65 3.34 3.3 3 5 C2.34 5 1.68 5 1 5 C1.33 6.65 1.66 8.3 2 10 C1.360625 10.4125 0.72125 10.825 0.0625 11.25 C-2.20990931 13.17810487 -2.60196439 14.11424181 -3 17 C-4.65 17 -6.3 17 -8 17 C-8 14.36 -8 11.72 -8 9 C-6.68 9 -5.36 9 -4 9 C-4 7.35 -4 5.7 -4 4 C-2.68 4 -1.36 4 0 4 C0 2.68 0 1.36 0 0 Z " fill="#D5AFE6" transform="translate(138,84)"/>
<path d="M0 0 C1.32 0 2.64 0 4 0 C4 5.61 4 11.22 4 17 C2.68 17 1.36 17 0 17 C0 14.03 0 11.06 0 8 C-1.65 8 -3.3 8 -5 8 C-4.67 6.02 -4.34 4.04 -4 2 C-1 3 -1 3 0 4 C0 2.68 0 1.36 0 0 Z " fill="#BE9FCE" transform="translate(470,138)"/>
<path d="M0 0 C4.95 0 9.9 0 15 0 C15 1.98 15 3.96 15 6 C10.05 6 5.1 6 0 6 C0 4.02 0 2.04 0 0 Z " fill="#F0D7F7" transform="translate(199,39)"/>
<path d="M0 0 C-1.17255709 3.33727786 -2.18868404 5.77437487 -5 8 C-5.66 8 -6.32 8 -7 8 C-7.33 9.65 -7.66 11.3 -8 13 C-9.65 13 -11.3 13 -13 13 C-13 9.7 -13 6.4 -13 3 C-11.02 3.99 -11.02 3.99 -9 5 C-8.67 4.01 -8.34 3.02 -8 2 C-5.01540871 0.04457812 -3.73585209 0 0 0 Z " fill="#C59DD8" transform="translate(175,243)"/>
<path d="M0 0 C3.1875 0.875 3.1875 0.875 6 2 C5.67 2.94875 5.34 3.8975 5 4.875 C3.89840809 7.77062452 3.89840809 7.77062452 4 10 C4.66 10 5.32 10 6 10 C6.33 11.32 6.66 12.64 7 14 C7.66 14 8.32 14 9 14 C8.67 14.99 8.34 15.98 8 17 C8 16.34 8 15.68 8 15 C7.34 15 6.68 15 6 15 C5.67 13.68 5.34 12.36 5 11 C3.68 11 2.36 11 1 11 C1 10.34 1 9.68 1 9 C0.01 9 -0.98 9 -2 9 C-2.33 6.69 -2.66 4.38 -3 2 C-2.01 1.34 -1.02 0.68 0 0 Z " fill="#B996CA" transform="translate(275,245)"/>
<path d="M0 0 C1.98 0.99 1.98 0.99 4 2 C4.66 1.34 5.32 0.68 6 0 C6 1.32 6 2.64 6 4 C6.96421875 3.97679687 7.9284375 3.95359375 8.921875 3.9296875 C10.81679688 3.90261719 10.81679688 3.90261719 12.75 3.875 C14.00296875 3.85179687 15.2559375 3.82859375 16.546875 3.8046875 C19.72820492 3.98462698 21.36521896 4.31001418 24 6 C23 7 23 7 20.77514648 7.11352539 C19.81680908 7.10828857 18.85847168 7.10305176 17.87109375 7.09765625 C16.31938477 7.09282227 16.31938477 7.09282227 14.73632812 7.08789062 C13.64771484 7.07951172 12.55910156 7.07113281 11.4375 7.0625 C9.7987793 7.05573242 9.7987793 7.05573242 8.12695312 7.04882812 C5.41791505 7.03699826 2.70898401 7.02051543 0 7 C0 4.69 0 2.38 0 0 Z " fill="#A082AD" transform="translate(360,54)"/>
<path d="M0 0 C5.28 0 10.56 0 16 0 C16 0.33 16 0.66 16 1 C14.75283203 1.00386719 14.75283203 1.00386719 13.48046875 1.0078125 C10.22160078 1.12378645 7.18941601 1.30932646 4 2 C2.33333333 4.91666667 2.33333333 4.91666667 1 8 C-1.51004857 8.86296609 -3.89713146 9.24488543 -6.52734375 9.578125 C-9.03076446 10.00524891 -10.80237691 10.75586999 -13 12 C-13 10.02 -13 8.04 -13 6 C-8.71 6 -4.42 6 0 6 C0 4.02 0 2.04 0 0 Z " fill="#281A30" transform="translate(196,66)"/>
<path d="M0 0 C0.33 0 0.66 0 1 0 C1 2.31 1 4.62 1 7 C-0.65 7 -2.3 7 -4 7 C-4 8.32 -4 9.64 -4 11 C-6.64 11 -9.28 11 -12 11 C-12 9.35 -12 7.7 -12 6 C-10.35 6 -8.7 6 -7 6 C-7 4.35 -7 2.7 -7 1 C-6.01 1.33 -5.02 1.66 -4 2 C-3.67 2.99 -3.34 3.98 -3 5 C-2.01 5.33 -1.02 5.66 0 6 C0 4.02 0 2.04 0 0 Z " fill="#534859" transform="translate(485,294)"/>
<path d="M0 0 C7.92 0 15.84 0 24 0 C24 0.33 24 0.66 24 1 C16.41 1 8.82 1 1 1 C1 2.65 1 4.3 1 6 C-1.31 6 -3.62 6 -6 6 C-6 7.32 -6 8.64 -6 10 C-7.98 10 -9.96 10 -12 10 C-10.68 9.34 -9.36 8.68 -8 8 C-8.33 7.01 -8.66 6.02 -9 5 C-5.81237635 2.87491756 -3.73487777 2.4979837 0 2 C0 1.34 0 0.68 0 0 Z " fill="#9B82A7" transform="translate(418,183)"/>
<path d="M0 0 C0.33 0 0.66 0 1 0 C1 11.22 1 22.44 1 34 C2.65 34 4.3 34 6 34 C6 38.29 6 42.58 6 47 C3.32072659 42.98108988 3.84398752 40.75838077 4 36 C2.68 36 1.36 36 0 36 C0 24.12 0 12.24 0 0 Z " fill="#947B9D" transform="translate(398,204)"/>
<path d="M0 0 C4.29 0 8.58 0 13 0 C9.5647952 2.29013653 8.014669 2.17842973 4 2 C4 2.99 4 3.98 4 5 C-1.94 5 -7.88 5 -14 5 C-14 4.34 -14 3.68 -14 3 C-9.38 3 -4.76 3 0 3 C0 2.01 0 1.02 0 0 Z " fill="#9D85A9" transform="translate(210,34)"/>
<path d="M0 0 C4.62 0 9.24 0 14 0 C14 0.33 14 0.66 14 1 C9.71 1 5.42 1 1 1 C1 2.65 1 4.3 1 6 C-4.61 6 -10.22 6 -16 6 C-16 7.98 -16 9.96 -16 12 C-18.97 11.505 -18.97 11.505 -22 11 C-22 10.34 -22 9.68 -22 9 C-21.01 8.67 -20.02 8.34 -19 8 C-18.67 6.68 -18.34 5.36 -18 4 C-12.06 4.33 -6.12 4.66 0 5 C0 3.35 0 1.7 0 0 Z " fill="#9A7EAA" transform="translate(212,60)"/>
<path d="M0 0 C1.98 0 3.96 0 6 0 C6 1.98 6 3.96 6 6 C7.32 6.33 8.64 6.66 10 7 C8.68 7 7.36 7 6 7 C6 11.62 6 16.24 6 21 C5.67 21 5.34 21 5 21 C5 16.38 5 11.76 5 7 C3.35 7 1.7 7 0 7 C0 4.69 0 2.38 0 0 Z " fill="#3A2F3E" transform="translate(464,167)"/>
<path d="M0 0 C2 3 2 3 3 6 C4.98 6 6.96 6 9 6 C8.67 7.98 8.34 9.96 8 12 C9.98 12 11.96 12 14 12 C14 13.65 14 15.3 14 17 C16.31 17 18.62 17 21 17 C21 19.64 21 22.28 21 25 C20.67 25 20.34 25 20 25 C20 22.69 20 20.38 20 18 C17.69 18 15.38 18 13 18 C13 16.35 13 14.7 13 13 C11.02 13 9.04 13 7 13 C7 11.68 7 10.36 7 9 C4.69 9 2.38 9 0 9 C0 6.03 0 3.06 0 0 Z " fill="#7A6287" transform="translate(413,76)"/>
<path d="M0 0 C0.495 0.309375 0.99 0.61875 1.5 0.9375 C4.97986781 2.41644382 8.24028509 2.62402851 12 3 C12.33 3.99 12.66 4.98 13 6 C13.66 6 14.32 6 15 6 C15.33 6.66 15.66 7.32 16 8 C17.89533342 8.46523063 17.89533342 8.46523063 20.0625 8.625 C21.361875 8.74875 22.66125 8.8725 24 9 C24 9.33 24 9.66 24 10 C19.71 10 15.42 10 11 10 C11 8.35 11 6.7 11 5 C7.37 5 3.74 5 0 5 C0 3.35 0 1.7 0 0 Z " fill="#26182E" transform="translate(377,35)"/>
<path d="M0 0 C3.96 0 7.92 0 12 0 C11.01 0.495 11.01 0.495 10 1 C10 1.66 10 2.32 10 3 C8.02 3 6.04 3 4 3 C4 3.66 4 4.32 4 5 C0.85069107 6.04976964 -1.38814456 6.10131595 -4.6875 6.0625 C-5.68136719 6.05347656 -6.67523438 6.04445313 -7.69921875 6.03515625 C-8.83810547 6.01775391 -8.83810547 6.01775391 -10 6 C-10 7.65 -10 9.3 -10 11 C-10.33 11 -10.66 11 -11 11 C-11 9.02 -11 7.04 -11 5 C-7.37 5 -3.74 5 0 5 C0 3.35 0 1.7 0 0 Z " fill="#A88EB7" transform="translate(184,39)"/>
<path d="M0 0 C6.27 0 12.54 0 19 0 C19 1.98 19 3.96 19 6 C18.34 6 17.68 6 17 6 C17 4.68 17 3.36 17 2 C12.38 2.33 7.76 2.66 3 3 C2.67 3.99 2.34 4.98 2 6 C1.34 5.67 0.68 5.34 0 5 C0 3.35 0 1.7 0 0 Z " fill="#B79AC7" transform="translate(483,168)"/>
<path d="M0 0 C0.61875 0.639375 1.2375 1.27875 1.875 1.9375 C3.82597612 4.03883584 3.82597612 4.03883584 6 5 C6.4140625 7.06640625 6.4140625 7.06640625 6.625 9.5625 C6.69976562 10.38878906 6.77453125 11.21507813 6.8515625 12.06640625 C6.90054687 12.70449219 6.94953125 13.34257813 7 14 C8.32 14.33 9.64 14.66 11 15 C8.69 15 6.38 15 4 15 C4 12.03 4 9.06 4 6 C2.02 6 0.04 6 -2 6 C-2 4.35 -2 2.7 -2 1 C-1.34 0.67 -0.68 0.34 0 0 Z " fill="#A68BB6" transform="translate(445,107)"/>
<path d="M0 0 C0.33 0 0.66 0 1 0 C1 4.29 1 8.58 1 13 C2.98 13 4.96 13 7 13 C7 18.61 7 24.22 7 30 C6.67 30 6.34 30 6 30 C5.93941406 29.15695313 5.87882812 28.31390625 5.81640625 27.4453125 C5.73261719 26.34960938 5.64882812 25.25390625 5.5625 24.125 C5.48128906 23.03445312 5.40007812 21.94390625 5.31640625 20.8203125 C5.16998297 18.05271029 5.16998297 18.05271029 4 16 C2.68 16 1.36 16 0 16 C0 10.72 0 5.44 0 0 Z " fill="#8A7297" transform="translate(96,196)"/>
<path d="M0 0 C1.32 0 2.64 0 4 0 C4 2.97 4 5.94 4 9 C1.03 8.67 -1.94 8.34 -5 8 C-5 9.65 -5 11.3 -5 13 C-5.33 13 -5.66 13 -6 13 C-6 11.02 -6 9.04 -6 7 C-4.02 7 -2.04 7 0 7 C0 4.69 0 2.38 0 0 Z " fill="#A28EA8" transform="translate(453,251)"/>
<path d="M0 0 C0.33 0 0.66 0 1 0 C1 2.31 1 4.62 1 7 C-0.65 7.33 -2.3 7.66 -4 8 C-4 11.96 -4 15.92 -4 20 C-7.3 20 -10.6 20 -14 20 C-14 19.67 -14 19.34 -14 19 C-11.36 19 -8.72 19 -6 19 C-6.01160156 18.14535156 -6.02320313 17.29070312 -6.03515625 16.41015625 C-6.04417969 15.30542969 -6.05320312 14.20070312 -6.0625 13.0625 C-6.07410156 11.96035156 -6.08570313 10.85820312 -6.09765625 9.72265625 C-6 7 -6 7 -5 6 C-3.33382885 5.95936168 -1.66611905 5.957279 0 6 C0 4.02 0 2.04 0 0 Z " fill="#5D5C5D" transform="translate(37,193)"/>
<path d="M0 0 C0.33 0.66 0.66 1.32 1 2 C6.28 2 11.56 2 17 2 C17 2.33 17 2.66 17 3 C10.73 3.33 4.46 3.66 -2 4 C-2.33 4.99 -2.66 5.98 -3 7 C-6.3 7 -9.6 7 -13 7 C-13 6.67 -13 6.34 -13 6 C-9.7 5.67 -6.4 5.34 -3 5 C-3 4.01 -3 3.02 -3 2 C-2.01 1.34 -1.02 0.68 0 0 Z " fill="#967EA3" transform="translate(206,235)"/>
<path d="M0 0 C12.54 0 25.08 0 38 0 C36 2 36 2 32.79125977 2.1953125 C31.42451137 2.18143935 30.05784333 2.15730065 28.69140625 2.125 C27.96888168 2.11742676 27.24635712 2.10985352 26.50193787 2.10205078 C23.40620544 2.0693021 20.3109973 2.01308099 17.21557617 1.95898438 C14.95754428 1.92285206 12.69959789 1.89863825 10.44140625 1.875 C9.7413295 1.85840332 9.04125275 1.84180664 8.31996155 1.82470703 C4.62678735 1.78740023 3.16512908 1.88991395 0 4 C0 2.68 0 1.36 0 0 Z " fill="#C5A5D2" transform="translate(376,162)"/>
<path d="M0 0 C2.64 0 5.28 0 8 0 C8 0.33 8 0.66 8 1 C5.69 1 3.38 1 1 1 C1.103125 2.093125 1.20625 3.18625 1.3125 4.3125 C1.1578125 6.1378125 1.1578125 6.1378125 1 8 C-1.375 9.5625 -1.375 9.5625 -4 11 C-5.35980881 14.07561246 -5.35980881 14.07561246 -6 17 C-6.33 17 -6.66 17 -7 17 C-7 13.7 -7 10.4 -7 7 C-4.69 7 -2.38 7 0 7 C0 4.69 0 2.38 0 0 Z " fill="#9A7DA8" transform="translate(115,94)"/>
<path d="M0 0 C0.33 1.32 0.66 2.64 1 4 C-1.31 4 -3.62 4 -6 4 C-6 4.99 -6 5.98 -6 7 C-9.63 6.67 -13.26 6.34 -17 6 C-17 5.34 -17 4.68 -17 4 C-14.03 4 -11.06 4 -8 4 C-8 3.01 -8 2.02 -8 1 C-5.125 0.875 -5.125 0.875 -2 1 C-1.34 1.66 -0.68 2.32 0 3 C0 2.01 0 1.02 0 0 Z " fill="#C0A2CB" transform="translate(173,52)"/>
<path d="M0 0 C0 0.33 0 0.66 0 1 C-2.64 1 -5.28 1 -8 1 C-8 2.32 -8 3.64 -8 5 C-11.3 5 -14.6 5 -18 5 C-17.01 4.67 -16.02 4.34 -15 4 C-15 3.34 -15 2.68 -15 2 C-16.32 1.67 -17.64 1.34 -19 1 C-12.62641289 0.03794912 -6.44070471 -0.10655578 0 0 Z " fill="#CAA9D8" transform="translate(196,44)"/>
<path d="M0 0 C-0.33 0.99 -0.66 1.98 -1 3 C-1.78375 3.0825 -2.5675 3.165 -3.375 3.25 C-6.11631339 3.70995268 -6.11631339 3.70995268 -7.125 5.875 C-7.41375 6.57625 -7.7025 7.2775 -8 8 C-9.5 9.75 -9.5 9.75 -11 11 C-11.66 11 -12.32 11 -13 11 C-13.33 11.66 -13.66 12.32 -14 13 C-13.67 10.69 -13.34 8.38 -13 6 C-12.01 6 -11.02 6 -10 6 C-10 5.34 -10 4.68 -10 4 C-9.34 4 -8.68 4 -8 4 C-8 3.34 -8 2.68 -8 2 C-5.09399739 0.74335022 -3.20395416 0 0 0 Z " fill="#B79BC8" transform="translate(177,237)"/>
<path d="M0 0 C2.10304477 -0.1080023 4.20766909 -0.18558987 6.3125 -0.25 C8.07013672 -0.31960937 8.07013672 -0.31960937 9.86328125 -0.390625 C13 0 13 0 14.9375 1.875 C16 4 16 4 15.6875 6.25 C15.3471875 7.11625 15.3471875 7.11625 15 8 C17.31 8 19.62 8 22 8 C22 8.33 22 8.66 22 9 C18.7 9 15.4 9 12 9 C12 6.36 12 3.72 12 1 C8.04 1 4.08 1 0 1 C0 0.67 0 0.34 0 0 Z " fill="#2A1B32" transform="translate(401,50)"/>
<path d="M0 0 C0.66 0.66 1.32 1.32 2 2 C5.08347826 2.16681109 5.08347826 2.16681109 8 2 C8 2.66 8 3.32 8 4 C8.66 4.33 9.32 4.66 10 5 C5.05 5 0.1 5 -5 5 C-5 3.68 -5 2.36 -5 1 C-2.625 0.375 -2.625 0.375 0 0 Z " fill="#AA8CBA" transform="translate(350,49)"/>
<path d="M0 0 C0.33 0 0.66 0 1 0 C1 1.98 1 3.96 1 6 C3.31 6 5.62 6 8 6 C8.33 8.97 8.66 11.94 9 15 C10.98 15 12.96 15 15 15 C15 15.33 15 15.66 15 16 C12.03 16 9.06 16 6 16 C6 13.03 6 10.06 6 7 C4.02 7 2.04 7 0 7 C0 4.69 0 2.38 0 0 Z " fill="#392A42" transform="translate(436,73)"/>
<path d="M0 0 C3.3 0 6.6 0 10 0 C10 2.31 10 4.62 10 7 C11.98 7 13.96 7 16 7 C16 9.31 16 11.62 16 14 C15.67 14 15.34 14 15 14 C15 12.02 15 10.04 15 8 C14.05125 8.020625 13.1025 8.04125 12.125 8.0625 C9 8 9 8 7 7 C7 5.35 7 3.7 7 2 C4.69 1.67 2.38 1.34 0 1 C0 0.67 0 0.34 0 0 Z " fill="#8A7397" transform="translate(413,59)"/>
<path d="M0 0 C2.31 0 4.62 0 7 0 C7 2.97 7 5.94 7 9 C4.69 9 2.38 9 0 9 C0.33 8.01 0.66 7.02 1 6 C2.32 6 3.64 6 5 6 C5 4.68 5 3.36 5 2 C3.35 2.33 1.7 2.66 0 3 C0 2.01 0 1.02 0 0 Z " fill="#F2D9FC" transform="translate(189,45)"/>
<path d="M0 0 C0.66 0 1.32 0 2 0 C2.03738281 0.77085937 2.07476562 1.54171875 2.11328125 2.3359375 C2.17902344 3.33882813 2.24476563 4.34171875 2.3125 5.375 C2.37050781 6.37273437 2.42851562 7.37046875 2.48828125 8.3984375 C2.65714844 9.25695312 2.82601563 10.11546875 3 11 C3.99 11.66 4.98 12.32 6 13 C6 13.66 6 14.32 6 15 C4.02 15 2.04 15 0 15 C0 10.05 0 5.1 0 0 Z " fill="#A98FB4" transform="translate(358,260)"/>
<path d="M0 0 C8.91 0 17.82 0 27 0 C27 0.66 27 1.32 27 2 C27.99 2.33 28.98 2.66 30 3 C28.865625 2.835 27.73125 2.67 26.5625 2.5 C21.02238943 1.85394877 15.5078909 1.97009647 9.94165039 2.125 C5.77664362 2.19314691 3.83400059 1.91700029 0 0 Z " fill="#BF9FCD" transform="translate(211,227)"/>
<path d="M0 0 C0 3.63 0 7.26 0 11 C-1.32 11 -2.64 11 -4 11 C-4.08096803 9.54257537 -4.13917774 8.08387193 -4.1875 6.625 C-4.22230469 5.81289062 -4.25710938 5.00078125 -4.29296875 4.1640625 C-4.19628906 3.44992188 -4.09960938 2.73578125 -4 2 C-1 0 -1 0 0 0 Z " fill="#BA95CD" transform="translate(474,144)"/>
<path d="M0 0 C0.99 0 1.98 0 3 0 C3 3.96 3 7.92 3 12 C0.69 12 -1.62 12 -4 12 C-3.01 11.34 -2.02 10.68 -1 10 C-0.17528509 6.55119218 0 3.55809249 0 0 Z " fill="#BEA1CA" transform="translate(403,192)"/>
<path d="M0 0 C0.66 0 1.32 0 2 0 C2 5.61 2 11.22 2 17 C1.01 17 0.02 17 -1 17 C-0.67 11.39 -0.34 5.78 0 0 Z " fill="#B49BC2" transform="translate(115,148)"/>
<path d="M0 0 C0.33 0 0.66 0 1 0 C1 2.31 1 4.62 1 7 C2.65 6.67 4.3 6.34 6 6 C6.66 9.3 7.32 12.6 8 16 C6.68 16 5.36 16 4 16 C4 13.36 4 10.72 4 8 C2.68 8 1.36 8 0 8 C0 5.36 0 2.72 0 0 Z " fill="#92799D" transform="translate(456,122)"/>
<path d="M0 0 C0.33 0.66 0.66 1.32 1 2 C1.66 2.33 2.32 2.66 3 3 C2.34 5.31 1.68 7.62 1 10 C-1.97 9.505 -1.97 9.505 -5 9 C-5 9.99 -5 10.98 -5 12 C-5.66 12 -6.32 12 -7 12 C-7.33 12.99 -7.66 13.98 -8 15 C-8 12.69 -8 10.38 -8 8 C-5.36 8 -2.72 8 0 8 C0 5.36 0 2.72 0 0 Z " fill="#B191C3" transform="translate(155,56)"/>
<path d="M0 0 C3.96 0 7.92 0 12 0 C12 2.64 12 5.28 12 8 C11.01 7.34 10.02 6.68 9 6 C9.33 4.68 9.66 3.36 10 2 C6.37 2 2.74 2 -1 2 C-0.67 1.34 -0.34 0.68 0 0 Z " fill="#B494C4" transform="translate(401,51)"/>
<path d="M0 0 C0.33 0 0.66 0 1 0 C1 3.63 1 7.26 1 11 C-0.65 11 -2.3 11 -4 11 C-4 12.65 -4 14.3 -4 16 C-4.33 16 -4.66 16 -5 16 C-5 14.02 -5 12.04 -5 10 C-4.34 9.67 -3.68 9.34 -3 9 C-2.09274566 6.88672575 -2.09274566 6.88672575 -1.375 4.4375 C-1.11460937 3.61121094 -0.85421875 2.78492188 -0.5859375 1.93359375 C-0.39257812 1.29550781 -0.19921875 0.65742188 0 0 Z " fill="#947AA4" transform="translate(525,277)"/>
<path d="M0 0 C0 0.66 0 1.32 0 2 C-0.99 2.309375 -0.99 2.309375 -2 2.625 C-6.11606263 4.51152871 -9.4587703 7.20567979 -13 10 C-12.67 8.02 -12.34 6.04 -12 4 C-10.02 3.67 -8.04 3.34 -6 3 C-6 2.34 -6 1.68 -6 1 C-4 0 -4 0 0 0 Z " fill="#1E1225" transform="translate(181,248)"/>
<path d="M0 0 C0.99 0.33 1.98 0.66 3 1 C3 2.32 3 3.64 3 5 C4.32 4.67 5.64 4.34 7 4 C7 5.32 7 6.64 7 8 C4.69 8 2.38 8 0 8 C0 5.36 0 2.72 0 0 Z " fill="#E7C8F6" transform="translate(50,225)"/>
<path d="M0 0 C2.97 0 5.94 0 9 0 C9.33 1.65 9.66 3.3 10 5 C11.32 5.33 12.64 5.66 14 6 C14 7.65 14 9.3 14 11 C13.67 9.68 13.34 8.36 13 7 C11.35 6.67 9.7 6.34 8 6 C8 5.01 8 4.02 8 3 C5.36 2.67 2.72 2.34 0 2 C0 1.34 0 0.68 0 0 Z " fill="#A98DB7" transform="translate(502,174)"/>
<path d="M0 0 C0.33 0 0.66 0 1 0 C1.33 2.64 1.66 5.28 2 8 C4.31 8 6.62 8 9 8 C9 10.31 9 12.62 9 15 C8.814375 14.38125 8.62875 13.7625 8.4375 13.125 C6.28562767 9.94397134 3.62466237 9.80548053 0 9 C0 6.03 0 3.06 0 0 Z " fill="#C3A3D0" transform="translate(401,243)"/>
<path d="M0 0 C0.66 0 1.32 0 2 0 C2 2.64 2 5.28 2 8 C-0.64 8 -3.28 8 -6 8 C-6 10.31 -6 12.62 -6 15 C-6.33 15 -6.66 15 -7 15 C-7 12.36 -7 9.72 -7 7 C-4.69 7 -2.38 7 0 7 C-0.2784375 5.824375 -0.2784375 5.824375 -0.5625 4.625 C-1 2 -1 2 0 0 Z " fill="#3C2D46" transform="translate(153,56)"/>
<path d="M0 0 C1.32 0 2.64 0 4 0 C4 2.64 4 5.28 4 8 C2.68 8 1.36 8 0 8 C0 5.36 0 2.72 0 0 Z " fill="#EDCDFB" transform="translate(516,213)"/>
<path d="M0 0 C1.32 0 2.64 0 4 0 C4 2.64 4 5.28 4 8 C2.68 8 1.36 8 0 8 C0 5.36 0 2.72 0 0 Z " fill="#E9C6F7" transform="translate(130,93)"/>
<path d="M0 0 C0.66 0.66 1.32 1.32 2 2 C1.67 2.66 1.34 3.32 1 4 C-3.95 4 -8.9 4 -14 4 C-11.41331224 1.41331224 -10.03108979 1.65770694 -6.4375 1.4375 C-2.90583192 1.50202788 -2.90583192 1.50202788 0 0 Z " fill="#A88CB8" transform="translate(240,50)"/>
<path d="M0 0 C1.98 0 3.96 0 6 0 C6 4.29 6 8.58 6 13 C3.32072659 8.98108988 3.84398752 6.75838077 4 2 C2.68 2 1.36 2 0 2 C0 1.34 0 0.68 0 0 Z " fill="#9F87A9" transform="translate(398,238)"/>
<path d="M0 0 C1.98 0 3.96 0 6 0 C5.67 0.66 5.34 1.32 5 2 C4.01 2.33 3.02 2.66 2 3 C1.67 3.99 1.34 4.98 1 6 C-1.31 6 -3.62 6 -6 6 C-6 8.64 -6 11.28 -6 14 C-6.33 14 -6.66 14 -7 14 C-7 11.03 -7 8.06 -7 5 C-4.69 5 -2.38 5 0 5 C0 3.35 0 1.7 0 0 Z " fill="#A087AA" transform="translate(367,168)"/>
<path d="M0 0 C2.64 0 5.28 0 8 0 C8 0.33 8 0.66 8 1 C5.69 1 3.38 1 1 1 C1 2.98 1 4.96 1 7 C-1.31 7 -3.62 7 -6 7 C-4.625 5.5 -4.625 5.5 -3 4 C-2.34 4 -1.68 4 -1 4 C-0.67 2.68 -0.34 1.36 0 0 Z " fill="#8B7494" transform="translate(443,274)"/>
<path d="M0 0 C0.33 0.66 0.66 1.32 1 2 C3.52733235 2.65555119 3.52733235 2.65555119 6 3 C6 3.99 6 4.98 6 6 C7.32 6.33 8.64 6.66 10 7 C10 7.66 10 8.32 10 9 C10.66 9 11.32 9 12 9 C12 9.66 12 10.32 12 11 C10.68 10.67 9.36 10.34 8 10 C8 9.34 8 8.68 8 8 C6.68 7.67 5.36 7.34 4 7 C4 6.01 4 5.02 4 4 C2.68 3.67 1.36 3.34 0 3 C0 2.01 0 1.02 0 0 Z " fill="#90779F" transform="translate(276,243)"/>
<path d="M0 0 C0.33 0 0.66 0 1 0 C1 2.31 1 4.62 1 7 C-1.64 7 -4.28 7 -7 7 C-7 8.65 -7 10.3 -7 12 C-8.98 12 -10.96 12 -13 12 C-12.01 11.67 -11.02 11.34 -10 11 C-10 10.34 -10 9.68 -10 9 C-9.34 9 -8.68 9 -8 9 C-8 8.01 -8 7.02 -8 6 C-5.36 6 -2.72 6 0 6 C0 4.02 0 2.04 0 0 Z " fill="#322438" transform="translate(374,161)"/>
<path d="M0 0 C1.98 0 3.96 0 6 0 C6 0.33 6 0.66 6 1 C4.35 1 2.7 1 1 1 C1.12375 2.0725 1.2475 3.145 1.375 4.25 C1.189375 6.10625 1.189375 6.10625 1 8 C-2 10.4375 -2 10.4375 -5 12 C-5.33 10.68 -5.66 9.36 -6 8 C-4.35 7.67 -2.7 7.34 -1 7 C-0.67 4.69 -0.34 2.38 0 0 Z " fill="#C3A3D1" transform="translate(361,175)"/>
<path d="M0 0 C2.97 0 5.94 0 9 0 C8.67 0.99 8.34 1.98 8 3 C5.69 3 3.38 3 1 3 C0.67 3.99 0.34 4.98 0 6 C0 4.02 0 2.04 0 0 Z " fill="#A890B8" transform="translate(164,50)"/>
<path d="M0 0 C1.32 0.33 2.64 0.66 4 1 C3.67 1.66 3.34 2.32 3 3 C3.66 3 4.32 3 5 3 C5 3.66 5 4.32 5 5 C5.99 5.33 6.98 5.66 8 6 C5.36 6 2.72 6 0 6 C0 4.02 0 2.04 0 0 Z " fill="#E7C7F6" transform="translate(199,39)"/>
<path d="M0 0 C0.66 0 1.32 0 2 0 C2 1.98 2 3.96 2 6 C-0.64 6 -3.28 6 -6 6 C-5 4 -5 4 -2 3 C-1.34 2.01 -0.68 1.02 0 0 Z " fill="#9A81A9" transform="translate(513,293)"/>
<path d="M0 0 C0.33 0 0.66 0 1 0 C1 3.63 1 7.26 1 11 C-1.31 11 -3.62 11 -6 11 C-5 9 -5 9 -2 8 C-1.19787372 6.12612784 -1.19787372 6.12612784 -0.8125 3.9375 C-0.65394531 3.20402344 -0.49539062 2.47054687 -0.33203125 1.71484375 C-0.22246094 1.14894531 -0.11289063 0.58304688 0 0 Z " fill="#B396C3" transform="translate(123,137)"/>
<path d="M0 0 C2.31 0 4.62 0 7 0 C7 0.66 7 1.32 7 2 C5.7934375 2.309375 5.7934375 2.309375 4.5625 2.625 C3.2940625 3.305625 3.2940625 3.305625 2 4 C1.10169161 7.05272465 1.10169161 7.05272465 1 10 C0.67 10 0.34 10 0 10 C0 6.7 0 3.4 0 0 Z " fill="#0C0110" transform="translate(526,277)"/>
<path d="M0 0 C1.98 0 3.96 0 6 0 C6 1.98 6 3.96 6 6 C5.01 5.67 4.02 5.34 3 5 C3 4.34 3 3.68 3 3 C1.68 2.67 0.36 2.34 -1 2 C-0.67 1.34 -0.34 0.68 0 0 Z " fill="#BA9DC6" transform="translate(410,258)"/>
<path d="M0 0 C0.99 0 1.98 0 3 0 C3 4.95 3 9.9 3 15 C2.67 15 2.34 15 2 15 C2 11.7 2 8.4 2 5 C1.34 5 0.68 5 0 5 C0 3.35 0 1.7 0 0 Z " fill="#D0B6DA" transform="translate(448,259)"/>
<path d="M0 0 C1.65 0 3.3 0 5 0 C5 1.65 5 3.3 5 5 C3.35 5 1.7 5 0 5 C0 3.35 0 1.7 0 0 Z " fill="#76647E" transform="translate(464,168)"/>
<path d="M0 0 C2 1 2 1 2.6875 2.8125 C3.02688538 5.18819767 2.72856341 6.73335829 2 9 C3.65 9 5.3 9 7 9 C7 9.33 7 9.66 7 10 C4.69 10 2.38 10 0 10 C-1.125 2.25 -1.125 2.25 0 0 Z " fill="#B997CB" transform="translate(51,304)"/>
<path d="M0 0 C0.99 0 1.98 0 3 0 C3 2.64 3 5.28 3 8 C2.01 8 1.02 8 0 8 C0 5.36 0 2.72 0 0 Z " fill="#BBA0C3" transform="translate(453,251)"/>
<path d="M0 0 C2.31 0 4.62 0 7 0 C4 2 4 2 2 2 C2.33 2.99 2.66 3.98 3 5 C2.34 5 1.68 5 1 5 C1 6.65 1 8.3 1 10 C0.67 10 0.34 10 0 10 C0 6.7 0 3.4 0 0 Z " fill="#6E5D74" transform="translate(114,297)"/>
<path d="M0 0 C2.31 0.33 4.62 0.66 7 1 C7 1.66 7 2.32 7 3 C8.32 3.33 9.64 3.66 11 4 C7.7 3.67 4.4 3.34 1 3 C0.67 2.01 0.34 1.02 0 0 Z " fill="#2A1B31" transform="translate(250,242)"/>
<path d="M0 0 C0.33 0 0.66 0 1 0 C1 2.64 1 5.28 1 8 C-1.31 8 -3.62 8 -6 8 C-5.01 7.01 -4.02 6.02 -3 5 C-2.67 5.33 -2.34 5.66 -2 6 C-1.34 4.02 -0.68 2.04 0 0 Z " fill="#B599C4" transform="translate(131,126)"/>
<path d="M0 0 C0.66 0.33 1.32 0.66 2 1 C2.02705729 2.77074917 2.04642195 4.54161711 2.0625 6.3125 C2.07410156 7.29863281 2.08570313 8.28476563 2.09765625 9.30078125 C2 12 2 12 1 15 C0.01 15 -0.98 15 -2 15 C-1.67 14.38125 -1.34 13.7625 -1 13.125 C0.40387684 8.73788488 0.15967523 4.56848573 0 0 Z " fill="#BB98CD" transform="translate(137,109)"/>
<path d="M0 0 C0.33 0 0.66 0 1 0 C1 2.64 1 5.28 1 8 C-1.64 8 -4.28 8 -7 8 C-6.01 7.34 -5.02 6.68 -4 6 C-1.66858245 3.93759216 -1.0192827 3.05784811 0 0 Z " fill="#180B1F" transform="translate(145,63)"/>
<path d="M0 0 C0.33 0 0.66 0 1 0 C1 1.65 1 3.3 1 5 C0.01 5 -0.98 5 -2 5 C-2 6.32 -2 7.64 -2 9 C-3.98 9 -5.96 9 -8 9 C-7.4225 8.814375 -6.845 8.62875 -6.25 8.4375 C-2.89572157 6.29448878 -1.82092004 3.51177437 0 0 Z " fill="#0C0110" transform="translate(52,196)"/>
<path d="M0 0 C1.98 0 3.96 0 6 0 C6 3.3 6 6.6 6 10 C5.67 10 5.34 10 5 10 C4.67 7.69 4.34 5.38 4 3 C2.35 2.67 0.7 2.34 -1 2 C-0.67 1.34 -0.34 0.68 0 0 Z " fill="#C09FD1" transform="translate(90,196)"/>
<path d="M0 0 C0.33 0.66 0.66 1.32 1 2 C1.66 2.33 2.32 2.66 3 3 C3.625 6.0625 3.625 6.0625 4 9 C2.68 9 1.36 9 0 9 C0 6.03 0 3.06 0 0 Z " fill="#9A81A8" transform="translate(490,179)"/>
<path d="M0 0 C0.33 1.32 0.66 2.64 1 4 C-1.97 4 -4.94 4 -8 4 C-8 3.01 -8 2.02 -8 1 C-5.125 0.875 -5.125 0.875 -2 1 C-1.34 1.66 -0.68 2.32 0 3 C0 2.01 0 1.02 0 0 Z " fill="#CBA9DB" transform="translate(173,52)"/>
<path d="M0 0 C0.33 0 0.66 0 1 0 C1 1.65 1 3.3 1 5 C-2.96 5 -6.92 5 -11 5 C-11 4.67 -11 4.34 -11 4 C-7.7 3.67 -4.4 3.34 -1 3 C-0.67 2.01 -0.34 1.02 0 0 Z " fill="#C7A8D7" transform="translate(427,287)"/>
<path d="M0 0 C1.65 0 3.3 0 5 0 C4.51917969 0.37769531 4.03835938 0.75539063 3.54296875 1.14453125 C1.46337042 3.64531405 1.50158423 5.47306804 1.3125 8.6875 C1.24675781 9.68136719 1.18101562 10.67523438 1.11328125 11.69921875 C1.07589844 12.45847656 1.03851563 13.21773438 1 14 C0.67 14 0.34 14 0 14 C0 9.38 0 4.76 0 0 Z " fill="#08000E" transform="translate(452,260)"/>
<path d="M0 0 C1.65 0 3.3 0 5 0 C4.2884375 0.7734375 4.2884375 0.7734375 3.5625 1.5625 C1.57190593 4.66782675 1.34939182 7.36632504 1 11 C0.67 11 0.34 11 0 11 C0 7.37 0 3.74 0 0 Z " fill="#07000E" transform="translate(125,135)"/>
<path d="M0 0 C2.31 0 4.62 0 7 0 C7 2.64 7 5.28 7 8 C6.67 8 6.34 8 6 8 C5.67 6.35 5.34 4.7 5 3 C3.35 2.67 1.7 2.34 0 2 C0 1.34 0 0.68 0 0 Z " fill="#BAA1C7" transform="translate(444,89)"/>
<path d="M0 0 C2.97 0.33 5.94 0.66 9 1 C7.68 1.33 6.36 1.66 5 2 C5 2.99 5 3.98 5 5 C3 4 3 4 0 2 C0 1.34 0 0.68 0 0 Z " fill="#C49ED9" transform="translate(158,58)"/>
<path d="M0 0 C2.97 0 5.94 0 9 0 C9 1.65 9 3.3 9 5 C8.34 4.67 7.68 4.34 7 4 C7 3.34 7 2.68 7 2 C4.69 1.67 2.38 1.34 0 1 C0 0.67 0 0.34 0 0 Z " fill="#B899C4" transform="translate(379,40)"/>
<path d="M0 0 C2.64 0 5.28 0 8 0 C7.0409375 0.433125 7.0409375 0.433125 6.0625 0.875 C3.84793921 1.82823451 3.84793921 1.82823451 3 4 C2.34 4 1.68 4 1 4 C0.67 4.66 0.34 5.32 0 6 C0 4.02 0 2.04 0 0 Z " fill="#140819" transform="translate(82,320)"/>
<path d="M0 0 C0.33 0 0.66 0 1 0 C1 2.31 1 4.62 1 7 C2.32 6.67 3.64 6.34 5 6 C5.33 6.99 5.66 7.98 6 9 C4.02 9 2.04 9 0 9 C0 6.03 0 3.06 0 0 Z " fill="#B094BA" transform="translate(352,251)"/>
<path d="M0 0 C1.65 0.33 3.3 0.66 5 1 C4.34 2.65 3.68 4.3 3 6 C2.01 5.67 1.02 5.34 0 5 C-0.33 4.01 -0.66 3.02 -1 2 C-0.67 1.34 -0.34 0.68 0 0 Z " fill="#C59DDA" transform="translate(279,250)"/>
<path d="M0 0 C2.97 0 5.94 0 9 0 C8.01 0.495 8.01 0.495 7 1 C7 1.66 7 2.32 7 3 C4.69 3 2.38 3 0 3 C0 2.01 0 1.02 0 0 Z " fill="#B494C2" transform="translate(54,195)"/>
<path d="M0 0 C0.33 0 0.66 0 1 0 C1 1.98 1 3.96 1 6 C-2.75 7.125 -2.75 7.125 -5 6 C-5.33 5.34 -5.66 4.68 -6 4 C-4.02 4 -2.04 4 0 4 C0 2.68 0 1.36 0 0 Z " fill="#575252" transform="translate(44,188)"/>
<path d="M0 0 C1.98 0 3.96 0 6 0 C5.34 0.66 4.68 1.32 4 2 C3.30251417 3.31747324 2.63040043 4.64914193 2 6 C1.34 5.67 0.68 5.34 0 5 C0 3.35 0 1.7 0 0 Z " fill="#B295BE" transform="translate(483,168)"/>
<path d="M0 0 C1.32 0 2.64 0 4 0 C4 1.65 4 3.3 4 5 C2.68 5 1.36 5 0 5 C0 3.35 0 1.7 0 0 Z " fill="#EDC7F7" transform="translate(134,88)"/>
<path d="M0 0 C4.29 0 8.58 0 13 0 C13 0.33 13 0.66 13 1 C11.96939453 1.05607422 11.96939453 1.05607422 10.91796875 1.11328125 C10.01691406 1.17902344 9.11585938 1.24476562 8.1875 1.3125 C7.29417969 1.37050781 6.40085938 1.42851563 5.48046875 1.48828125 C2.69396 2.06313581 1.75864246 2.8206856 0 5 C0 3.35 0 1.7 0 0 Z " fill="#0D0114" transform="translate(213,61)"/>
<path d="M0 0 C1.32 0 2.64 0 4 0 C4 0.99 4 1.98 4 3 C4.99 3.33 5.98 3.66 7 4 C4.69 4 2.38 4 0 4 C0 2.68 0 1.36 0 0 Z " fill="#73677A" transform="translate(96,324)"/>
<path d="M0 0 C2.31 0 4.62 0 7 0 C5.49336217 3.01327566 2.96833589 3.61056618 0 5 C0 3.35 0 1.7 0 0 Z " fill="#1A0D20" transform="translate(90,314)"/>
<path d="M0 0 C2.31 0 4.62 0 7 0 C7 2.31 7 4.62 7 7 C6.34 6.67 5.68 6.34 5 6 C4.87625 5.360625 4.7525 4.72125 4.625 4.0625 C4.19060573 1.80148727 4.19060573 1.80148727 1.9375 0.75 C1.298125 0.5025 0.65875 0.255 0 0 Z " fill="#2B1C34" transform="translate(44,307)"/>
<path d="M0 0 C0.33 1.32 0.66 2.64 1 4 C-0.98 4 -2.96 4 -5 4 C-5 3.01 -5 2.02 -5 1 C-3.35 0.67 -1.7 0.34 0 0 Z " fill="#77677D" transform="translate(479,300)"/>
<path d="M0 0 C0.33 0 0.66 0 1 0 C1 2.97 1 5.94 1 9 C-1.31 9 -3.62 9 -6 9 C-3 7 -3 7 -1 6 C-0.34227572 2.97065509 -0.34227572 2.97065509 0 0 Z " fill="#635569" transform="translate(142,288)"/>
<path d="M0 0 C0.33 0 0.66 0 1 0 C1 1.98 1 3.96 1 6 C-1.64 6 -4.28 6 -7 6 C-6.401875 5.7525 -5.80375 5.505 -5.1875 5.25 C-2.71323572 3.8361347 -1.61671451 2.30959216 0 0 Z " fill="#9D85A7" transform="translate(436,281)"/>
<path d="M0 0 C0.33 0 0.66 0 1 0 C1 1.65 1 3.3 1 5 C-1.64 5 -4.28 5 -7 5 C-6.67 4.34 -6.34 3.68 -6 3 C-2.9375 2.375 -2.9375 2.375 0 2 C0 1.34 0 0.68 0 0 Z " fill="#BFA0CE" transform="translate(533,271)"/>
<path d="M0 0 C1.32 0 2.64 0 4 0 C4 1.98 4 3.96 4 6 C3.67 5.34 3.34 4.68 3 4 C2.01 4.33 1.02 4.66 0 5 C0 3.35 0 1.7 0 0 Z " fill="#6B5B6F" transform="translate(470,174)"/>
<path d="M0 0 C1.65 0 3.3 0 5 0 C5 2.31 5 4.62 5 7 C4.34 5.68 3.68 4.36 3 3 C2.34 3 1.68 3 1 3 C0.67 2.01 0.34 1.02 0 0 Z " fill="#C2A6CD" transform="translate(431,168)"/>
<path d="M0 0 C1.98 0 3.96 0 6 0 C4.07423885 2.43929746 2.19909405 4.80090595 0 7 C0 4.69 0 2.38 0 0 Z " fill="#130419" transform="translate(147,103)"/>
<path d="M0 0 C0.33 0 0.66 0 1 0 C1 2.31 1 4.62 1 7 C-1.31 7 -3.62 7 -6 7 C-5.01 6.01 -4.02 5.02 -3 4 C-2.01 4.33 -1.02 4.66 0 5 C0 3.35 0 1.7 0 0 Z " fill="#120618" transform="translate(114,94)"/>
<path d="M0 0 C2.31 0.66 4.62 1.32 7 2 C7 3.98 7 5.96 7 8 C6.67 8 6.34 8 6 8 C6 6.35 6 4.7 6 3 C5.21625 3.20625 4.4325 3.4125 3.625 3.625 C2.75875 3.74875 1.8925 3.8725 1 4 C0.34 3.34 -0.32 2.68 -1 2 C-0.67 1.34 -0.34 0.68 0 0 Z " fill="#AA8EBB" transform="translate(283,252)"/>
<path d="M0 0 C2.96175123 0.61277612 4.38058783 1.25372522 7 3 C6.67 4.32 6.34 5.64 6 7 C6 6.34 6 5.68 6 5 C5.34 5 4.68 5 4 5 C4 4.34 4 3.68 4 3 C2.68 2.67 1.36 2.34 0 2 C0 1.34 0 0.68 0 0 Z " fill="#150B1D" transform="translate(282,247)"/>
<path d="M0 0 C-0.33 0.99 -0.66 1.98 -1 3 C-2.98 3 -4.96 3 -7 3 C-7 3.66 -7 4.32 -7 5 C-7.99 4.67 -8.98 4.34 -10 4 C-9.34 4 -8.68 4 -8 4 C-8 3.34 -8 2.68 -8 2 C-5.09399739 0.74335022 -3.20395416 0 0 0 Z " fill="#8C769B" transform="translate(177,237)"/>
<path d="M0 0 C0.33 1.32 0.66 2.64 1 4 C-5.625 5 -5.625 5 -9 5 C-8.67 4.34 -8.34 3.68 -8 3 C-4.71585695 2.04932701 -3.30306592 1.89897803 0 3 C0 2.01 0 1.02 0 0 Z " fill="#C2A4D2" transform="translate(138,121)"/>
<path d="M0 0 C0.33 1.32 0.66 2.64 1 4 C2.65 4 4.3 4 6 4 C6 4.33 6 4.66 6 5 C3.36 5 0.72 5 -2 5 C-2 3.68 -2 2.36 -2 1 C-1.34 0.67 -0.68 0.34 0 0 Z " fill="#C19FD0" transform="translate(400,66)"/>
<path d="M0 0 C0.99 0.495 0.99 0.495 2 1 C2.34342449 2.33076989 2.67619874 3.66431979 3 5 C3.66 5.66 4.32 6.32 5 7 C3.35 7 1.7 7 0 7 C0 4.69 0 2.38 0 0 Z " fill="#6A596F" transform="translate(474,189)"/>
<path d="M0 0 C0.99 1.32 1.98 2.64 3 4 C2.67 4.66 2.34 5.32 2 6 C1.01 6 0.02 6 -1 6 C-1.33 4.68 -1.66 3.36 -2 2 C-1.34 2 -0.68 2 0 2 C0 1.34 0 0.68 0 0 Z " fill="#C29AD9" transform="translate(470,140)"/>
<path d="M0 0 C1 2 2 4 3 6 C3.99 6.66 4.98 7.32 6 8 C4.02 8 2.04 8 0 8 C0 5.36 0 2.72 0 0 Z " fill="#14051C" transform="translate(451,89)"/>
</svg>
